<svg width="316" height="124" viewBox="0 0 316 124" fill="none" xmlns="http://www.w3.org/2000/svg">
<g filter="url(#filter0_d_112_9)">
<path d="M5.21584 115.942C7.95148 114.356 23.3395 100.404 23.3395 100.404L5.21584 70C5.21584 70 2.4802 117.527 5.21584 115.942Z" fill="white"/>
<rect x="4.71625" width="307.284" height="100.5" rx="20" fill="white"/>
<path d="M91.746 58.432C91.746 59.164 91.578 59.836 91.242 60.448C90.906 61.048 90.39 61.534 89.694 61.906C88.998 62.278 88.134 62.464 87.102 62.464H85.194V67H82.116V54.364H87.102C88.11 54.364 88.962 54.538 89.658 54.886C90.354 55.234 90.876 55.714 91.224 56.326C91.572 56.938 91.746 57.64 91.746 58.432ZM86.868 60.016C87.456 60.016 87.894 59.878 88.182 59.602C88.47 59.326 88.614 58.936 88.614 58.432C88.614 57.928 88.47 57.538 88.182 57.262C87.894 56.986 87.456 56.848 86.868 56.848H85.194V60.016H86.868ZM97.9204 67.126C96.9964 67.126 96.1684 66.976 95.4364 66.676C94.7044 66.376 94.1164 65.932 93.6724 65.344C93.2404 64.756 93.0124 64.048 92.9884 63.22H96.2644C96.3124 63.688 96.4744 64.048 96.7504 64.3C97.0264 64.54 97.3864 64.66 97.8304 64.66C98.2864 64.66 98.6464 64.558 98.9104 64.354C99.1744 64.138 99.3064 63.844 99.3064 63.472C99.3064 63.16 99.1984 62.902 98.9824 62.698C98.7784 62.494 98.5204 62.326 98.2084 62.194C97.9084 62.062 97.4764 61.912 96.9124 61.744C96.0964 61.492 95.4304 61.24 94.9144 60.988C94.3984 60.736 93.9544 60.364 93.5824 59.872C93.2104 59.38 93.0244 58.738 93.0244 57.946C93.0244 56.77 93.4504 55.852 94.3024 55.192C95.1544 54.52 96.2644 54.184 97.6324 54.184C99.0244 54.184 100.146 54.52 100.998 55.192C101.85 55.852 102.306 56.776 102.366 57.964H99.0364C99.0124 57.556 98.8624 57.238 98.5864 57.01C98.3104 56.77 97.9564 56.65 97.5244 56.65C97.1524 56.65 96.8524 56.752 96.6244 56.956C96.3964 57.148 96.2824 57.43 96.2824 57.802C96.2824 58.21 96.4744 58.528 96.8584 58.756C97.2424 58.984 97.8424 59.23 98.6584 59.494C99.4744 59.77 100.134 60.034 100.638 60.286C101.154 60.538 101.598 60.904 101.97 61.384C102.342 61.864 102.528 62.482 102.528 63.238C102.528 63.958 102.342 64.612 101.97 65.2C101.61 65.788 101.082 66.256 100.386 66.604C99.6904 66.952 98.8684 67.126 97.9204 67.126ZM107.501 54.364V67H104.423V54.364H107.501ZM123.176 58.432C123.176 59.164 123.008 59.836 122.672 60.448C122.336 61.048 121.82 61.534 121.124 61.906C120.428 62.278 119.564 62.464 118.532 62.464H116.624V67H113.546V54.364H118.532C119.54 54.364 120.392 54.538 121.088 54.886C121.784 55.234 122.306 55.714 122.654 56.326C123.002 56.938 123.176 57.64 123.176 58.432ZM118.298 60.016C118.886 60.016 119.324 59.878 119.612 59.602C119.9 59.326 120.044 58.936 120.044 58.432C120.044 57.928 119.9 57.538 119.612 57.262C119.324 56.986 118.886 56.848 118.298 56.848H116.624V60.016H118.298ZM124.166 61.96C124.166 60.928 124.358 60.022 124.742 59.242C125.138 58.462 125.672 57.862 126.344 57.442C127.016 57.022 127.766 56.812 128.594 56.812C129.302 56.812 129.92 56.956 130.448 57.244C130.988 57.532 131.402 57.91 131.69 58.378V56.956H134.768V67H131.69V65.578C131.39 66.046 130.97 66.424 130.43 66.712C129.902 67 129.284 67.144 128.576 67.144C127.76 67.144 127.016 66.934 126.344 66.514C125.672 66.082 125.138 65.476 124.742 64.696C124.358 63.904 124.166 62.992 124.166 61.96ZM131.69 61.978C131.69 61.21 131.474 60.604 131.042 60.16C130.622 59.716 130.106 59.494 129.494 59.494C128.882 59.494 128.36 59.716 127.928 60.16C127.508 60.592 127.298 61.192 127.298 61.96C127.298 62.728 127.508 63.34 127.928 63.796C128.36 64.24 128.882 64.462 129.494 64.462C130.106 64.462 130.622 64.24 131.042 63.796C131.474 63.352 131.69 62.746 131.69 61.978ZM140.073 58.63C140.433 58.078 140.883 57.646 141.423 57.334C141.963 57.01 142.563 56.848 143.223 56.848V60.106H142.377C141.609 60.106 141.033 60.274 140.649 60.61C140.265 60.934 140.073 61.51 140.073 62.338V67H136.995V56.956H140.073V58.63ZM150.292 64.39V67H148.726C147.61 67 146.74 66.73 146.116 66.19C145.492 65.638 145.18 64.744 145.18 63.508V59.512H143.956V56.956H145.18V54.508H148.258V56.956H150.274V59.512H148.258V63.544C148.258 63.844 148.33 64.06 148.474 64.192C148.618 64.324 148.858 64.39 149.194 64.39H150.292ZM151.395 61.96C151.395 60.928 151.587 60.022 151.971 59.242C152.367 58.462 152.901 57.862 153.573 57.442C154.245 57.022 154.995 56.812 155.823 56.812C156.531 56.812 157.149 56.956 157.677 57.244C158.217 57.532 158.631 57.91 158.919 58.378V56.956H161.997V67H158.919V65.578C158.619 66.046 158.199 66.424 157.659 66.712C157.131 67 156.513 67.144 155.805 67.144C154.989 67.144 154.245 66.934 153.573 66.514C152.901 66.082 152.367 65.476 151.971 64.696C151.587 63.904 151.395 62.992 151.395 61.96ZM158.919 61.978C158.919 61.21 158.703 60.604 158.271 60.16C157.851 59.716 157.335 59.494 156.723 59.494C156.111 59.494 155.589 59.716 155.157 60.16C154.737 60.592 154.527 61.192 154.527 61.96C154.527 62.728 154.737 63.34 155.157 63.796C155.589 64.24 156.111 64.462 156.723 64.462C157.335 64.462 157.851 64.24 158.271 63.796C158.703 63.352 158.919 62.746 158.919 61.978ZM165.771 55.912C165.231 55.912 164.787 55.756 164.439 55.444C164.103 55.12 163.935 54.724 163.935 54.256C163.935 53.776 164.103 53.38 164.439 53.068C164.787 52.744 165.231 52.582 165.771 52.582C166.299 52.582 166.731 52.744 167.067 53.068C167.415 53.38 167.589 53.776 167.589 54.256C167.589 54.724 167.415 55.12 167.067 55.444C166.731 55.756 166.299 55.912 165.771 55.912ZM167.301 56.956V67H164.223V56.956H167.301ZM181.734 58.36C181.506 57.94 181.176 57.622 180.744 57.406C180.324 57.178 179.826 57.064 179.25 57.064C178.254 57.064 177.456 57.394 176.856 58.054C176.256 58.702 175.956 59.572 175.956 60.664C175.956 61.828 176.268 62.74 176.892 63.4C177.528 64.048 178.398 64.372 179.502 64.372C180.258 64.372 180.894 64.18 181.41 63.796C181.938 63.412 182.322 62.86 182.562 62.14H178.656V59.872H185.352V62.734C185.124 63.502 184.734 64.216 184.182 64.876C183.642 65.536 182.952 66.07 182.112 66.478C181.272 66.886 180.324 67.09 179.268 67.09C178.02 67.09 176.904 66.82 175.92 66.28C174.948 65.728 174.186 64.966 173.634 63.994C173.094 63.022 172.824 61.912 172.824 60.664C172.824 59.416 173.094 58.306 173.634 57.334C174.186 56.35 174.948 55.588 175.92 55.048C176.892 54.496 178.002 54.22 179.25 54.22C180.762 54.22 182.034 54.586 183.066 55.318C184.11 56.05 184.8 57.064 185.136 58.36H181.734ZM194.923 64.768H190.207L189.451 67H186.229L190.801 54.364H194.365L198.937 67H195.679L194.923 64.768ZM194.131 62.392L192.565 57.766L191.017 62.392H194.131ZM207.655 67L203.407 61.42V67H200.329V54.364H203.407V59.908L207.619 54.364H211.237L206.341 60.556L211.417 67H207.655ZM224.614 54.364V62.968C224.614 64.3 224.236 65.326 223.48 66.046C222.736 66.766 221.728 67.126 220.456 67.126C219.124 67.126 218.056 66.748 217.252 65.992C216.448 65.236 216.046 64.162 216.046 62.77H219.106C219.106 63.298 219.214 63.7 219.43 63.976C219.646 64.24 219.958 64.372 220.366 64.372C220.738 64.372 221.026 64.252 221.23 64.012C221.434 63.772 221.536 63.424 221.536 62.968V54.364H224.614ZM230.178 56.83V59.386H234.3V61.762H230.178V64.534H234.84V67H227.1V54.364H234.84V56.83H230.178ZM239.917 64.624H243.949V67H236.839V54.364H239.917V64.624ZM253.283 64.768H248.567L247.811 67H244.589L249.161 54.364H252.725L257.297 67H254.039L253.283 64.768ZM252.491 62.392L250.925 57.766L249.377 62.392H252.491ZM263.26 67.126C262.336 67.126 261.508 66.976 260.776 66.676C260.044 66.376 259.456 65.932 259.012 65.344C258.58 64.756 258.352 64.048 258.328 63.22H261.604C261.652 63.688 261.814 64.048 262.09 64.3C262.366 64.54 262.726 64.66 263.17 64.66C263.626 64.66 263.986 64.558 264.25 64.354C264.514 64.138 264.646 63.844 264.646 63.472C264.646 63.16 264.538 62.902 264.322 62.698C264.118 62.494 263.86 62.326 263.548 62.194C263.248 62.062 262.816 61.912 262.252 61.744C261.436 61.492 260.77 61.24 260.254 60.988C259.738 60.736 259.294 60.364 258.922 59.872C258.55 59.38 258.364 58.738 258.364 57.946C258.364 56.77 258.79 55.852 259.642 55.192C260.494 54.52 261.604 54.184 262.972 54.184C264.364 54.184 265.486 54.52 266.338 55.192C267.19 55.852 267.646 56.776 267.706 57.964H264.376C264.352 57.556 264.202 57.238 263.926 57.01C263.65 56.77 263.296 56.65 262.864 56.65C262.492 56.65 262.192 56.752 261.964 56.956C261.736 57.148 261.622 57.43 261.622 57.802C261.622 58.21 261.814 58.528 262.198 58.756C262.582 58.984 263.182 59.23 263.998 59.494C264.814 59.77 265.474 60.034 265.978 60.286C266.494 60.538 266.938 60.904 267.31 61.384C267.682 61.864 267.868 62.482 267.868 63.238C267.868 63.958 267.682 64.612 267.31 65.2C266.95 65.788 266.422 66.256 265.726 66.604C265.03 66.952 264.208 67.126 263.26 67.126ZM273.812 53.914L273.452 62.536H270.842L270.482 53.914H273.812ZM272.192 67.144C271.652 67.144 271.208 66.988 270.86 66.676C270.524 66.352 270.356 65.956 270.356 65.488C270.356 65.008 270.524 64.606 270.86 64.282C271.208 63.958 271.652 63.796 272.192 63.796C272.72 63.796 273.152 63.958 273.488 64.282C273.836 64.606 274.01 65.008 274.01 65.488C274.01 65.956 273.836 66.352 273.488 66.676C273.152 66.988 272.72 67.144 272.192 67.144Z" fill="#4E4E4E"/>
<circle cx="45" cy="60" r="26" fill="black"/>
<path d="M86.964 22.974C87.3187 23.03 87.6407 23.1747 87.93 23.408C88.2287 23.6413 88.462 23.9307 88.63 24.276C88.8073 24.6213 88.896 24.99 88.896 25.382C88.896 25.8767 88.77 26.3247 88.518 26.726C88.266 27.118 87.8973 27.4307 87.412 27.664C86.936 27.888 86.3713 28 85.718 28H82.078V18.242H85.578C86.2407 18.242 86.8053 18.354 87.272 18.578C87.7387 18.7927 88.0887 19.0867 88.322 19.46C88.5553 19.8333 88.672 20.2533 88.672 20.72C88.672 21.2987 88.5133 21.7793 88.196 22.162C87.888 22.5353 87.4773 22.806 86.964 22.974ZM83.352 22.456H85.494C86.0913 22.456 86.5533 22.316 86.88 22.036C87.2067 21.756 87.37 21.3687 87.37 20.874C87.37 20.3793 87.2067 19.992 86.88 19.712C86.5533 19.432 86.082 19.292 85.466 19.292H83.352V22.456ZM85.606 26.95C86.2407 26.95 86.7353 26.8007 87.09 26.502C87.4447 26.2033 87.622 25.788 87.622 25.256C87.622 24.7147 87.4353 24.29 87.062 23.982C86.6887 23.6647 86.1893 23.506 85.564 23.506H83.352V26.95H85.606ZM90.1879 24.136C90.1879 23.352 90.3466 22.666 90.6639 22.078C90.9813 21.4807 91.4153 21.0187 91.9659 20.692C92.5259 20.3653 93.1466 20.202 93.8279 20.202C94.4999 20.202 95.0833 20.3467 95.5779 20.636C96.0726 20.9253 96.4413 21.2893 96.6839 21.728V20.328H97.9719V28H96.6839V26.572C96.4319 27.02 96.0539 27.3933 95.5499 27.692C95.0553 27.9813 94.4766 28.126 93.8139 28.126C93.1326 28.126 92.5166 27.958 91.9659 27.622C91.4153 27.286 90.9813 26.8147 90.6639 26.208C90.3466 25.6013 90.1879 24.9107 90.1879 24.136ZM96.6839 24.15C96.6839 23.5713 96.5673 23.0673 96.3339 22.638C96.1006 22.2087 95.7833 21.882 95.3819 21.658C94.9899 21.4247 94.5559 21.308 94.0799 21.308C93.6039 21.308 93.1699 21.42 92.7779 21.644C92.3859 21.868 92.0733 22.1947 91.8399 22.624C91.6066 23.0533 91.4899 23.5573 91.4899 24.136C91.4899 24.724 91.6066 25.2373 91.8399 25.676C92.0733 26.1053 92.3859 26.4367 92.7779 26.67C93.1699 26.894 93.6039 27.006 94.0799 27.006C94.5559 27.006 94.9899 26.894 95.3819 26.67C95.7833 26.4367 96.1006 26.1053 96.3339 25.676C96.5673 25.2373 96.6839 24.7287 96.6839 24.15ZM101.399 17.64V28H100.125V17.64H101.399ZM103.094 24.136C103.094 23.352 103.253 22.666 103.57 22.078C103.888 21.4807 104.322 21.0187 104.872 20.692C105.432 20.3653 106.053 20.202 106.734 20.202C107.406 20.202 107.99 20.3467 108.484 20.636C108.979 20.9253 109.348 21.2893 109.59 21.728V20.328H110.878V28H109.59V26.572C109.338 27.02 108.96 27.3933 108.456 27.692C107.962 27.9813 107.383 28.126 106.72 28.126C106.039 28.126 105.423 27.958 104.872 27.622C104.322 27.286 103.888 26.8147 103.57 26.208C103.253 25.6013 103.094 24.9107 103.094 24.136ZM109.59 24.15C109.59 23.5713 109.474 23.0673 109.24 22.638C109.007 22.2087 108.69 21.882 108.288 21.658C107.896 21.4247 107.462 21.308 106.986 21.308C106.51 21.308 106.076 21.42 105.684 21.644C105.292 21.868 104.98 22.1947 104.746 22.624C104.513 23.0533 104.396 23.5573 104.396 24.136C104.396 24.724 104.513 25.2373 104.746 25.676C104.98 26.1053 105.292 26.4367 105.684 26.67C106.076 26.894 106.51 27.006 106.986 27.006C107.462 27.006 107.896 26.894 108.288 26.67C108.69 26.4367 109.007 26.1053 109.24 25.676C109.474 25.2373 109.59 24.7287 109.59 24.15ZM115.747 28.126C115.159 28.126 114.632 28.028 114.165 27.832C113.698 27.6267 113.33 27.3467 113.059 26.992C112.788 26.628 112.639 26.2127 112.611 25.746H113.927C113.964 26.1287 114.142 26.4413 114.459 26.684C114.786 26.9267 115.21 27.048 115.733 27.048C116.218 27.048 116.601 26.9407 116.881 26.726C117.161 26.5113 117.301 26.2407 117.301 25.914C117.301 25.578 117.152 25.3307 116.853 25.172C116.554 25.004 116.092 24.8407 115.467 24.682C114.898 24.5327 114.431 24.3833 114.067 24.234C113.712 24.0753 113.404 23.8467 113.143 23.548C112.891 23.24 112.765 22.8387 112.765 22.344C112.765 21.952 112.882 21.5927 113.115 21.266C113.348 20.9393 113.68 20.6827 114.109 20.496C114.538 20.3 115.028 20.202 115.579 20.202C116.428 20.202 117.114 20.4167 117.637 20.846C118.16 21.2753 118.44 21.8633 118.477 22.61H117.203C117.175 22.2087 117.012 21.8867 116.713 21.644C116.424 21.4013 116.032 21.28 115.537 21.28C115.08 21.28 114.716 21.378 114.445 21.574C114.174 21.77 114.039 22.0267 114.039 22.344C114.039 22.596 114.118 22.806 114.277 22.974C114.445 23.1327 114.65 23.2633 114.893 23.366C115.145 23.4593 115.49 23.5667 115.929 23.688C116.48 23.8373 116.928 23.9867 117.273 24.136C117.618 24.276 117.912 24.4907 118.155 24.78C118.407 25.0693 118.538 25.4473 118.547 25.914C118.547 26.334 118.43 26.712 118.197 27.048C117.964 27.384 117.632 27.65 117.203 27.846C116.783 28.0327 116.298 28.126 115.747 28.126ZM129.37 28L125.352 23.548V28H124.078V18.242H125.352V22.764L129.384 18.242H130.994L126.57 23.128L131.036 28H129.37ZM135.805 28.126C135.086 28.126 134.433 27.9627 133.845 27.636C133.266 27.3093 132.809 26.8473 132.473 26.25C132.146 25.6433 131.983 24.9433 131.983 24.15C131.983 23.366 132.151 22.6753 132.487 22.078C132.832 21.4713 133.299 21.0093 133.887 20.692C134.475 20.3653 135.133 20.202 135.861 20.202C136.589 20.202 137.247 20.3653 137.835 20.692C138.423 21.0093 138.885 21.4667 139.221 22.064C139.566 22.6613 139.739 23.3567 139.739 24.15C139.739 24.9433 139.562 25.6433 139.207 26.25C138.862 26.8473 138.39 27.3093 137.793 27.636C137.196 27.9627 136.533 28.126 135.805 28.126ZM135.805 27.006C136.262 27.006 136.692 26.8987 137.093 26.684C137.494 26.4693 137.816 26.1473 138.059 25.718C138.311 25.2887 138.437 24.766 138.437 24.15C138.437 23.534 138.316 23.0113 138.073 22.582C137.83 22.1527 137.513 21.8353 137.121 21.63C136.729 21.4153 136.304 21.308 135.847 21.308C135.38 21.308 134.951 21.4153 134.559 21.63C134.176 21.8353 133.868 22.1527 133.635 22.582C133.402 23.0113 133.285 23.534 133.285 24.15C133.285 24.7753 133.397 25.3027 133.621 25.732C133.854 26.1613 134.162 26.4833 134.545 26.698C134.928 26.9033 135.348 27.006 135.805 27.006ZM150.64 20.188C151.237 20.188 151.769 20.314 152.236 20.566C152.703 20.8087 153.071 21.1773 153.342 21.672C153.613 22.1667 153.748 22.7687 153.748 23.478V28H152.488V23.66C152.488 22.8947 152.297 22.3113 151.914 21.91C151.541 21.4993 151.032 21.294 150.388 21.294C149.725 21.294 149.198 21.5087 148.806 21.938C148.414 22.358 148.218 22.9693 148.218 23.772V28H146.958V23.66C146.958 22.8947 146.767 22.3113 146.384 21.91C146.011 21.4993 145.502 21.294 144.858 21.294C144.195 21.294 143.668 21.5087 143.276 21.938C142.884 22.358 142.688 22.9693 142.688 23.772V28H141.414V20.328H142.688V21.434C142.94 21.0327 143.276 20.7247 143.696 20.51C144.125 20.2953 144.597 20.188 145.11 20.188C145.754 20.188 146.323 20.3327 146.818 20.622C147.313 20.9113 147.681 21.336 147.924 21.896C148.139 21.3547 148.493 20.9347 148.988 20.636C149.483 20.3373 150.033 20.188 150.64 20.188ZM162.838 23.87C162.838 24.1127 162.824 24.3693 162.796 24.64H156.664C156.71 25.396 156.967 25.9887 157.434 26.418C157.91 26.838 158.484 27.048 159.156 27.048C159.706 27.048 160.164 26.922 160.528 26.67C160.901 26.4087 161.162 26.0633 161.312 25.634H162.684C162.478 26.3713 162.068 26.9733 161.452 27.44C160.836 27.8973 160.07 28.126 159.156 28.126C158.428 28.126 157.774 27.9627 157.196 27.636C156.626 27.3093 156.178 26.8473 155.852 26.25C155.525 25.6433 155.362 24.9433 155.362 24.15C155.362 23.3567 155.52 22.6613 155.838 22.064C156.155 21.4667 156.598 21.0093 157.168 20.692C157.746 20.3653 158.409 20.202 159.156 20.202C159.884 20.202 160.528 20.3607 161.088 20.678C161.648 20.9953 162.077 21.434 162.376 21.994C162.684 22.5447 162.838 23.17 162.838 23.87ZM161.522 23.604C161.522 23.1187 161.414 22.7033 161.2 22.358C160.985 22.0033 160.691 21.7373 160.318 21.56C159.954 21.3733 159.548 21.28 159.1 21.28C158.456 21.28 157.905 21.4853 157.448 21.896C157 22.3067 156.743 22.876 156.678 23.604H161.522ZM168.257 20.188C169.191 20.188 169.947 20.4727 170.525 21.042C171.104 21.602 171.393 22.414 171.393 23.478V28H170.133V23.66C170.133 22.8947 169.942 22.3113 169.559 21.91C169.177 21.4993 168.654 21.294 167.991 21.294C167.319 21.294 166.783 21.504 166.381 21.924C165.989 22.344 165.793 22.9553 165.793 23.758V28H164.519V20.328H165.793V21.42C166.045 21.028 166.386 20.7247 166.815 20.51C167.254 20.2953 167.735 20.188 168.257 20.188ZM175.028 21.378V25.9C175.028 26.2733 175.108 26.5393 175.266 26.698C175.425 26.8473 175.7 26.922 176.092 26.922H177.03V28H175.882C175.173 28 174.641 27.8367 174.286 27.51C173.932 27.1833 173.754 26.6467 173.754 25.9V21.378H172.76V20.328H173.754V18.396H175.028V20.328H177.03V21.378H175.028ZM178.098 24.136C178.098 23.352 178.257 22.666 178.574 22.078C178.891 21.4807 179.325 21.0187 179.876 20.692C180.436 20.3653 181.057 20.202 181.738 20.202C182.41 20.202 182.993 20.3467 183.488 20.636C183.983 20.9253 184.351 21.2893 184.594 21.728V20.328H185.882V28H184.594V26.572C184.342 27.02 183.964 27.3933 183.46 27.692C182.965 27.9813 182.387 28.126 181.724 28.126C181.043 28.126 180.427 27.958 179.876 27.622C179.325 27.286 178.891 26.8147 178.574 26.208C178.257 25.6013 178.098 24.9107 178.098 24.136ZM184.594 24.15C184.594 23.5713 184.477 23.0673 184.244 22.638C184.011 22.2087 183.693 21.882 183.292 21.658C182.9 21.4247 182.466 21.308 181.99 21.308C181.514 21.308 181.08 21.42 180.688 21.644C180.296 21.868 179.983 22.1947 179.75 22.624C179.517 23.0533 179.4 23.5573 179.4 24.136C179.4 24.724 179.517 25.2373 179.75 25.676C179.983 26.1053 180.296 26.4367 180.688 26.67C181.08 26.894 181.514 27.006 181.99 27.006C182.466 27.006 182.9 26.894 183.292 26.67C183.693 26.4367 184.011 26.1053 184.244 25.676C184.477 25.2373 184.594 24.7287 184.594 24.15ZM189.309 21.574C189.533 21.1353 189.85 20.7947 190.261 20.552C190.681 20.3093 191.19 20.188 191.787 20.188V21.504H191.451C190.023 21.504 189.309 22.2787 189.309 23.828V28H188.035V20.328H189.309V21.574ZM200.336 28.098C199.617 28.098 198.973 27.9813 198.404 27.748C197.835 27.5147 197.377 27.1693 197.032 26.712C196.696 26.2547 196.519 25.704 196.5 25.06H199.048C199.085 25.424 199.211 25.704 199.426 25.9C199.641 26.0867 199.921 26.18 200.266 26.18C200.621 26.18 200.901 26.1007 201.106 25.942C201.311 25.774 201.414 25.5453 201.414 25.256C201.414 25.0133 201.33 24.8127 201.162 24.654C201.003 24.4953 200.803 24.3647 200.56 24.262C200.327 24.1593 199.991 24.0427 199.552 23.912C198.917 23.716 198.399 23.52 197.998 23.324C197.597 23.128 197.251 22.8387 196.962 22.456C196.673 22.0733 196.528 21.574 196.528 20.958C196.528 20.0433 196.859 19.3293 197.522 18.816C198.185 18.2933 199.048 18.032 200.112 18.032C201.195 18.032 202.067 18.2933 202.73 18.816C203.393 19.3293 203.747 20.048 203.794 20.972H201.204C201.185 20.6547 201.069 20.4073 200.854 20.23C200.639 20.0433 200.364 19.95 200.028 19.95C199.739 19.95 199.505 20.0293 199.328 20.188C199.151 20.3373 199.062 20.5567 199.062 20.846C199.062 21.1633 199.211 21.4107 199.51 21.588C199.809 21.7653 200.275 21.9567 200.91 22.162C201.545 22.3767 202.058 22.582 202.45 22.778C202.851 22.974 203.197 23.2587 203.486 23.632C203.775 24.0053 203.92 24.486 203.92 25.074C203.92 25.634 203.775 26.1427 203.486 26.6C203.206 27.0573 202.795 27.4213 202.254 27.692C201.713 27.9627 201.073 28.098 200.336 28.098ZM212.757 23.968C212.757 24.192 212.743 24.4253 212.715 24.668H207.297C207.335 25.1533 207.489 25.5267 207.759 25.788C208.039 26.04 208.38 26.166 208.781 26.166C209.379 26.166 209.794 25.914 210.027 25.41H212.575C212.445 25.9233 212.207 26.3853 211.861 26.796C211.525 27.2067 211.101 27.5287 210.587 27.762C210.074 27.9953 209.5 28.112 208.865 28.112C208.1 28.112 207.419 27.9487 206.821 27.622C206.224 27.2953 205.757 26.8287 205.421 26.222C205.085 25.6153 204.917 24.906 204.917 24.094C204.917 23.282 205.081 22.5727 205.407 21.966C205.743 21.3593 206.21 20.8927 206.807 20.566C207.405 20.2393 208.091 20.076 208.865 20.076C209.621 20.076 210.293 20.2347 210.881 20.552C211.469 20.8693 211.927 21.322 212.253 21.91C212.589 22.498 212.757 23.184 212.757 23.968ZM210.307 23.338C210.307 22.9273 210.167 22.6007 209.887 22.358C209.607 22.1153 209.257 21.994 208.837 21.994C208.436 21.994 208.095 22.1107 207.815 22.344C207.545 22.5773 207.377 22.9087 207.311 23.338H210.307ZM216.414 21.294C216.648 20.93 216.97 20.636 217.38 20.412C217.791 20.188 218.272 20.076 218.822 20.076C219.466 20.076 220.05 20.2393 220.572 20.566C221.095 20.8927 221.506 21.3593 221.804 21.966C222.112 22.5727 222.266 23.2773 222.266 24.08C222.266 24.8827 222.112 25.592 221.804 26.208C221.506 26.8147 221.095 27.286 220.572 27.622C220.05 27.9487 219.466 28.112 218.822 28.112C218.281 28.112 217.8 28 217.38 27.776C216.97 27.552 216.648 27.2627 216.414 26.908V31.724H214.02V20.188H216.414V21.294ZM219.83 24.08C219.83 23.4827 219.662 23.016 219.326 22.68C219 22.3347 218.594 22.162 218.108 22.162C217.632 22.162 217.226 22.3347 216.89 22.68C216.564 23.0253 216.4 23.4967 216.4 24.094C216.4 24.6913 216.564 25.1627 216.89 25.508C217.226 25.8533 217.632 26.026 218.108 26.026C218.584 26.026 218.99 25.8533 219.326 25.508C219.662 25.1533 219.83 24.6773 219.83 24.08ZM231.236 20.188V28H228.842V26.936C228.6 27.2813 228.268 27.5613 227.848 27.776C227.438 27.9813 226.98 28.084 226.476 28.084C225.879 28.084 225.352 27.9533 224.894 27.692C224.437 27.4213 224.082 27.034 223.83 26.53C223.578 26.026 223.452 25.4333 223.452 24.752V20.188H225.832V24.43C225.832 24.9527 225.968 25.3587 226.238 25.648C226.509 25.9373 226.873 26.082 227.33 26.082C227.797 26.082 228.166 25.9373 228.436 25.648C228.707 25.3587 228.842 24.9527 228.842 24.43V20.188H231.236ZM237.758 20.104C238.654 20.104 239.373 20.4027 239.914 21C240.455 21.588 240.726 22.4 240.726 23.436V28H238.346V23.758C238.346 23.2353 238.211 22.8293 237.94 22.54C237.669 22.2507 237.305 22.106 236.848 22.106C236.391 22.106 236.027 22.2507 235.756 22.54C235.485 22.8293 235.35 23.2353 235.35 23.758V28H232.956V17.64H235.35V21.238C235.593 20.8927 235.924 20.6173 236.344 20.412C236.764 20.2067 237.235 20.104 237.758 20.104ZM248.409 28L246.407 24.99L244.643 28H241.927L245.077 23.002L241.857 18.172H244.643L246.617 21.14L248.353 18.172H251.069L247.947 23.128L251.195 28H248.409Z" fill="black"/>
</g>
<defs>
<filter id="filter0_d_112_9" x="0" y="0" width="316" height="123.981" filterUnits="userSpaceOnUse" color-interpolation-filters="sRGB">
<feFlood flood-opacity="0" result="BackgroundImageFix"/>
<feColorMatrix in="SourceAlpha" type="matrix" values="0 0 0 0 0 0 0 0 0 0 0 0 0 0 0 0 0 0 127 0" result="hardAlpha"/>
<feOffset dy="4"/>
<feGaussianBlur stdDeviation="2"/>
<feComposite in2="hardAlpha" operator="out"/>
<feColorMatrix type="matrix" values="0 0 0 0 0 0 0 0 0 0 0 0 0 0 0 0 0 0 0.25 0"/>
<feBlend mode="normal" in2="BackgroundImageFix" result="effect1_dropShadow_112_9"/>
<feBlend mode="normal" in="SourceGraphic" in2="effect1_dropShadow_112_9" result="shape"/>
</filter>
</defs>
</svg>
