<svg width="316" height="124" viewBox="0 0 316 124" fill="none" xmlns="http://www.w3.org/2000/svg">
<g filter="url(#filter0_d_112_17)">
<path d="M5.21584 115.942C7.95148 114.356 23.3395 100.404 23.3395 100.404L5.21584 70C5.21584 70 2.4802 117.527 5.21584 115.942Z" fill="white"/>
<rect x="4.71625" width="307.284" height="100.5" rx="20" fill="white"/>
<path d="M87.982 62.768H83.266L82.51 65H79.288L83.86 52.364H87.424L91.996 65H88.738L87.982 62.768ZM87.19 60.392L85.624 55.766L84.076 60.392H87.19ZM96.4655 56.378C96.7655 55.91 97.1795 55.532 97.7075 55.244C98.2355 54.956 98.8535 54.812 99.5615 54.812C100.389 54.812 101.139 55.022 101.811 55.442C102.483 55.862 103.011 56.462 103.395 57.242C103.791 58.022 103.989 58.928 103.989 59.96C103.989 60.992 103.791 61.904 103.395 62.696C103.011 63.476 102.483 64.082 101.811 64.514C101.139 64.934 100.389 65.144 99.5615 65.144C98.8655 65.144 98.2475 65 97.7075 64.712C97.1795 64.424 96.7655 64.052 96.4655 63.596V69.788H93.3875V54.956H96.4655V56.378ZM100.857 59.96C100.857 59.192 100.641 58.592 100.209 58.16C99.7895 57.716 99.2675 57.494 98.6435 57.494C98.0315 57.494 97.5095 57.716 97.0775 58.16C96.6575 58.604 96.4475 59.21 96.4475 59.978C96.4475 60.746 96.6575 61.352 97.0775 61.796C97.5095 62.24 98.0315 62.462 98.6435 62.462C99.2555 62.462 99.7775 62.24 100.209 61.796C100.641 61.34 100.857 60.728 100.857 59.96ZM104.992 59.96C104.992 58.928 105.184 58.022 105.568 57.242C105.964 56.462 106.498 55.862 107.17 55.442C107.842 55.022 108.592 54.812 109.42 54.812C110.128 54.812 110.746 54.956 111.274 55.244C111.814 55.532 112.228 55.91 112.516 56.378V54.956H115.594V65H112.516V63.578C112.216 64.046 111.796 64.424 111.256 64.712C110.728 65 110.11 65.144 109.402 65.144C108.586 65.144 107.842 64.934 107.17 64.514C106.498 64.082 105.964 63.476 105.568 62.696C105.184 61.904 104.992 60.992 104.992 59.96ZM112.516 59.978C112.516 59.21 112.3 58.604 111.868 58.16C111.448 57.716 110.932 57.494 110.32 57.494C109.708 57.494 109.186 57.716 108.754 58.16C108.334 58.592 108.124 59.192 108.124 59.96C108.124 60.728 108.334 61.34 108.754 61.796C109.186 62.24 109.708 62.462 110.32 62.462C110.932 62.462 111.448 62.24 111.868 61.796C112.3 61.352 112.516 60.746 112.516 59.978ZM121.907 65.144C121.031 65.144 120.251 64.994 119.567 64.694C118.883 64.394 118.343 63.986 117.947 63.47C117.551 62.942 117.329 62.354 117.281 61.706H120.323C120.359 62.054 120.521 62.336 120.809 62.552C121.097 62.768 121.451 62.876 121.871 62.876C122.255 62.876 122.549 62.804 122.753 62.66C122.969 62.504 123.077 62.306 123.077 62.066C123.077 61.778 122.927 61.568 122.627 61.436C122.327 61.292 121.841 61.136 121.169 60.968C120.449 60.8 119.849 60.626 119.369 60.446C118.889 60.254 118.475 59.96 118.127 59.564C117.779 59.156 117.605 58.61 117.605 57.926C117.605 57.35 117.761 56.828 118.073 56.36C118.397 55.88 118.865 55.502 119.477 55.226C120.101 54.95 120.839 54.812 121.691 54.812C122.951 54.812 123.941 55.124 124.661 55.748C125.393 56.372 125.813 57.2 125.921 58.232H123.077C123.029 57.884 122.873 57.608 122.609 57.404C122.357 57.2 122.021 57.098 121.601 57.098C121.241 57.098 120.965 57.17 120.773 57.314C120.581 57.446 120.485 57.632 120.485 57.872C120.485 58.16 120.635 58.376 120.935 58.52C121.247 58.664 121.727 58.808 122.375 58.952C123.119 59.144 123.725 59.336 124.193 59.528C124.661 59.708 125.069 60.008 125.417 60.428C125.777 60.836 125.963 61.388 125.975 62.084C125.975 62.672 125.807 63.2 125.471 63.668C125.147 64.124 124.673 64.484 124.049 64.748C123.437 65.012 122.723 65.144 121.907 65.144ZM129.406 53.912C128.866 53.912 128.422 53.756 128.074 53.444C127.738 53.12 127.57 52.724 127.57 52.256C127.57 51.776 127.738 51.38 128.074 51.068C128.422 50.744 128.866 50.582 129.406 50.582C129.934 50.582 130.366 50.744 130.702 51.068C131.05 51.38 131.224 51.776 131.224 52.256C131.224 52.724 131.05 53.12 130.702 53.444C130.366 53.756 129.934 53.912 129.406 53.912ZM130.936 54.956V65H127.858V54.956H130.936ZM139.341 54.848C140.493 54.848 141.417 55.232 142.113 56C142.809 56.756 143.157 57.8 143.157 59.132V65H140.097V59.546C140.097 58.874 139.923 58.352 139.575 57.98C139.227 57.608 138.759 57.422 138.171 57.422C137.583 57.422 137.115 57.608 136.767 57.98C136.419 58.352 136.245 58.874 136.245 59.546V65H133.167V51.68H136.245V56.306C136.557 55.862 136.983 55.508 137.523 55.244C138.063 54.98 138.669 54.848 139.341 54.848ZM158.74 56.432C158.74 57.164 158.572 57.836 158.236 58.448C157.9 59.048 157.384 59.534 156.688 59.906C155.992 60.278 155.128 60.464 154.096 60.464H152.188V65H149.11V52.364H154.096C155.104 52.364 155.956 52.538 156.652 52.886C157.348 53.234 157.87 53.714 158.218 54.326C158.566 54.938 158.74 55.64 158.74 56.432ZM153.862 58.016C154.45 58.016 154.888 57.878 155.176 57.602C155.464 57.326 155.608 56.936 155.608 56.432C155.608 55.928 155.464 55.538 155.176 55.262C154.888 54.986 154.45 54.848 153.862 54.848H152.188V58.016H153.862ZM164.915 65.126C163.991 65.126 163.163 64.976 162.431 64.676C161.699 64.376 161.111 63.932 160.667 63.344C160.235 62.756 160.007 62.048 159.983 61.22H163.259C163.307 61.688 163.469 62.048 163.745 62.3C164.021 62.54 164.381 62.66 164.825 62.66C165.281 62.66 165.641 62.558 165.905 62.354C166.169 62.138 166.301 61.844 166.301 61.472C166.301 61.16 166.193 60.902 165.977 60.698C165.773 60.494 165.515 60.326 165.203 60.194C164.903 60.062 164.471 59.912 163.907 59.744C163.091 59.492 162.425 59.24 161.909 58.988C161.393 58.736 160.949 58.364 160.577 57.872C160.205 57.38 160.019 56.738 160.019 55.946C160.019 54.77 160.445 53.852 161.297 53.192C162.149 52.52 163.259 52.184 164.627 52.184C166.019 52.184 167.141 52.52 167.993 53.192C168.845 53.852 169.301 54.776 169.361 55.964H166.031C166.007 55.556 165.857 55.238 165.581 55.01C165.305 54.77 164.951 54.65 164.519 54.65C164.147 54.65 163.847 54.752 163.619 54.956C163.391 55.148 163.277 55.43 163.277 55.802C163.277 56.21 163.469 56.528 163.853 56.756C164.237 56.984 164.837 57.23 165.653 57.494C166.469 57.77 167.129 58.034 167.633 58.286C168.149 58.538 168.593 58.904 168.965 59.384C169.337 59.864 169.523 60.482 169.523 61.238C169.523 61.958 169.337 62.612 168.965 63.2C168.605 63.788 168.077 64.256 167.381 64.604C166.685 64.952 165.863 65.126 164.915 65.126ZM174.495 52.364V65H171.417V52.364H174.495ZM183.618 52.364V65H180.54V52.364H183.618ZM191.446 62.39V65H189.88C188.764 65 187.894 64.73 187.27 64.19C186.646 63.638 186.334 62.744 186.334 61.508V57.512H185.11V54.956H186.334V52.508H189.412V54.956H191.428V57.512H189.412V61.544C189.412 61.844 189.484 62.06 189.628 62.192C189.772 62.324 190.012 62.39 190.348 62.39H191.446ZM203.079 54.956V65H200.001V63.632C199.689 64.076 199.263 64.436 198.723 64.712C198.195 64.976 197.607 65.108 196.959 65.108C196.191 65.108 195.513 64.94 194.925 64.604C194.337 64.256 193.881 63.758 193.557 63.11C193.233 62.462 193.071 61.7 193.071 60.824V54.956H196.131V60.41C196.131 61.082 196.305 61.604 196.653 61.976C197.001 62.348 197.469 62.534 198.057 62.534C198.657 62.534 199.131 62.348 199.479 61.976C199.827 61.604 200.001 61.082 200.001 60.41V54.956H203.079ZM208.98 51.662C210.264 51.662 211.29 51.998 212.058 52.67C212.838 53.342 213.228 54.29 213.228 55.514C213.228 56.642 212.856 57.524 212.112 58.16C211.38 58.784 210.408 59.102 209.196 59.114L209.106 60.464H206.406L206.316 57.116H207.396C208.32 57.116 209.022 57.002 209.502 56.774C209.994 56.546 210.24 56.132 210.24 55.532C210.24 55.112 210.126 54.782 209.898 54.542C209.67 54.302 209.352 54.182 208.944 54.182C208.512 54.182 208.176 54.308 207.936 54.56C207.696 54.8 207.576 55.13 207.576 55.55H204.678C204.654 54.818 204.804 54.158 205.128 53.57C205.464 52.982 205.956 52.52 206.604 52.184C207.264 51.836 208.056 51.662 208.98 51.662ZM207.792 65.144C207.252 65.144 206.808 64.988 206.46 64.676C206.124 64.352 205.956 63.956 205.956 63.488C205.956 63.008 206.124 62.606 206.46 62.282C206.808 61.958 207.252 61.796 207.792 61.796C208.32 61.796 208.752 61.958 209.088 62.282C209.436 62.606 209.61 63.008 209.61 63.488C209.61 63.956 209.436 64.352 209.088 64.676C208.752 64.988 208.32 65.144 207.792 65.144Z" fill="#4E4E4E"/>
<circle cx="43" cy="58" r="26" fill="black"/>
<path d="M84.964 20.974C85.3187 21.03 85.6407 21.1747 85.93 21.408C86.2287 21.6413 86.462 21.9307 86.63 22.276C86.8073 22.6213 86.896 22.99 86.896 23.382C86.896 23.8767 86.77 24.3247 86.518 24.726C86.266 25.118 85.8973 25.4307 85.412 25.664C84.936 25.888 84.3713 26 83.718 26H80.078V16.242H83.578C84.2407 16.242 84.8053 16.354 85.272 16.578C85.7387 16.7927 86.0887 17.0867 86.322 17.46C86.5553 17.8333 86.672 18.2533 86.672 18.72C86.672 19.2987 86.5133 19.7793 86.196 20.162C85.888 20.5353 85.4773 20.806 84.964 20.974ZM81.352 20.456H83.494C84.0913 20.456 84.5533 20.316 84.88 20.036C85.2067 19.756 85.37 19.3687 85.37 18.874C85.37 18.3793 85.2067 17.992 84.88 17.712C84.5533 17.432 84.082 17.292 83.466 17.292H81.352V20.456ZM83.606 24.95C84.2407 24.95 84.7353 24.8007 85.09 24.502C85.4447 24.2033 85.622 23.788 85.622 23.256C85.622 22.7147 85.4353 22.29 85.062 21.982C84.6887 21.6647 84.1893 21.506 83.564 21.506H81.352V24.95H83.606ZM88.1879 22.136C88.1879 21.352 88.3466 20.666 88.6639 20.078C88.9813 19.4807 89.4153 19.0187 89.9659 18.692C90.5259 18.3653 91.1466 18.202 91.8279 18.202C92.4999 18.202 93.0833 18.3467 93.5779 18.636C94.0726 18.9253 94.4413 19.2893 94.6839 19.728V18.328H95.9719V26H94.6839V24.572C94.4319 25.02 94.0539 25.3933 93.5499 25.692C93.0553 25.9813 92.4766 26.126 91.8139 26.126C91.1326 26.126 90.5166 25.958 89.9659 25.622C89.4153 25.286 88.9813 24.8147 88.6639 24.208C88.3466 23.6013 88.1879 22.9107 88.1879 22.136ZM94.6839 22.15C94.6839 21.5713 94.5673 21.0673 94.3339 20.638C94.1006 20.2087 93.7833 19.882 93.3819 19.658C92.9899 19.4247 92.5559 19.308 92.0799 19.308C91.6039 19.308 91.1699 19.42 90.7779 19.644C90.3859 19.868 90.0733 20.1947 89.8399 20.624C89.6066 21.0533 89.4899 21.5573 89.4899 22.136C89.4899 22.724 89.6066 23.2373 89.8399 23.676C90.0733 24.1053 90.3859 24.4367 90.7779 24.67C91.1699 24.894 91.6039 25.006 92.0799 25.006C92.5559 25.006 92.9899 24.894 93.3819 24.67C93.7833 24.4367 94.1006 24.1053 94.3339 23.676C94.5673 23.2373 94.6839 22.7287 94.6839 22.15ZM99.3989 15.64V26H98.1249V15.64H99.3989ZM101.094 22.136C101.094 21.352 101.253 20.666 101.57 20.078C101.888 19.4807 102.322 19.0187 102.872 18.692C103.432 18.3653 104.053 18.202 104.734 18.202C105.406 18.202 105.99 18.3467 106.484 18.636C106.979 18.9253 107.348 19.2893 107.59 19.728V18.328H108.878V26H107.59V24.572C107.338 25.02 106.96 25.3933 106.456 25.692C105.962 25.9813 105.383 26.126 104.72 26.126C104.039 26.126 103.423 25.958 102.872 25.622C102.322 25.286 101.888 24.8147 101.57 24.208C101.253 23.6013 101.094 22.9107 101.094 22.136ZM107.59 22.15C107.59 21.5713 107.474 21.0673 107.24 20.638C107.007 20.2087 106.69 19.882 106.288 19.658C105.896 19.4247 105.462 19.308 104.986 19.308C104.51 19.308 104.076 19.42 103.684 19.644C103.292 19.868 102.98 20.1947 102.746 20.624C102.513 21.0533 102.396 21.5573 102.396 22.136C102.396 22.724 102.513 23.2373 102.746 23.676C102.98 24.1053 103.292 24.4367 103.684 24.67C104.076 24.894 104.51 25.006 104.986 25.006C105.462 25.006 105.896 24.894 106.288 24.67C106.69 24.4367 107.007 24.1053 107.24 23.676C107.474 23.2373 107.59 22.7287 107.59 22.15ZM113.747 26.126C113.159 26.126 112.632 26.028 112.165 25.832C111.698 25.6267 111.33 25.3467 111.059 24.992C110.788 24.628 110.639 24.2127 110.611 23.746H111.927C111.964 24.1287 112.142 24.4413 112.459 24.684C112.786 24.9267 113.21 25.048 113.733 25.048C114.218 25.048 114.601 24.9407 114.881 24.726C115.161 24.5113 115.301 24.2407 115.301 23.914C115.301 23.578 115.152 23.3307 114.853 23.172C114.554 23.004 114.092 22.8407 113.467 22.682C112.898 22.5327 112.431 22.3833 112.067 22.234C111.712 22.0753 111.404 21.8467 111.143 21.548C110.891 21.24 110.765 20.8387 110.765 20.344C110.765 19.952 110.882 19.5927 111.115 19.266C111.348 18.9393 111.68 18.6827 112.109 18.496C112.538 18.3 113.028 18.202 113.579 18.202C114.428 18.202 115.114 18.4167 115.637 18.846C116.16 19.2753 116.44 19.8633 116.477 20.61H115.203C115.175 20.2087 115.012 19.8867 114.713 19.644C114.424 19.4013 114.032 19.28 113.537 19.28C113.08 19.28 112.716 19.378 112.445 19.574C112.174 19.77 112.039 20.0267 112.039 20.344C112.039 20.596 112.118 20.806 112.277 20.974C112.445 21.1327 112.65 21.2633 112.893 21.366C113.145 21.4593 113.49 21.5667 113.929 21.688C114.48 21.8373 114.928 21.9867 115.273 22.136C115.618 22.276 115.912 22.4907 116.155 22.78C116.407 23.0693 116.538 23.4473 116.547 23.914C116.547 24.334 116.43 24.712 116.197 25.048C115.964 25.384 115.632 25.65 115.203 25.846C114.783 26.0327 114.298 26.126 113.747 26.126ZM127.37 26L123.352 21.548V26H122.078V16.242H123.352V20.764L127.384 16.242H128.994L124.57 21.128L129.036 26H127.37ZM133.805 26.126C133.086 26.126 132.433 25.9627 131.845 25.636C131.266 25.3093 130.809 24.8473 130.473 24.25C130.146 23.6433 129.983 22.9433 129.983 22.15C129.983 21.366 130.151 20.6753 130.487 20.078C130.832 19.4713 131.299 19.0093 131.887 18.692C132.475 18.3653 133.133 18.202 133.861 18.202C134.589 18.202 135.247 18.3653 135.835 18.692C136.423 19.0093 136.885 19.4667 137.221 20.064C137.566 20.6613 137.739 21.3567 137.739 22.15C137.739 22.9433 137.562 23.6433 137.207 24.25C136.862 24.8473 136.39 25.3093 135.793 25.636C135.196 25.9627 134.533 26.126 133.805 26.126ZM133.805 25.006C134.262 25.006 134.692 24.8987 135.093 24.684C135.494 24.4693 135.816 24.1473 136.059 23.718C136.311 23.2887 136.437 22.766 136.437 22.15C136.437 21.534 136.316 21.0113 136.073 20.582C135.83 20.1527 135.513 19.8353 135.121 19.63C134.729 19.4153 134.304 19.308 133.847 19.308C133.38 19.308 132.951 19.4153 132.559 19.63C132.176 19.8353 131.868 20.1527 131.635 20.582C131.402 21.0113 131.285 21.534 131.285 22.15C131.285 22.7753 131.397 23.3027 131.621 23.732C131.854 24.1613 132.162 24.4833 132.545 24.698C132.928 24.9033 133.348 25.006 133.805 25.006ZM148.64 18.188C149.237 18.188 149.769 18.314 150.236 18.566C150.703 18.8087 151.071 19.1773 151.342 19.672C151.613 20.1667 151.748 20.7687 151.748 21.478V26H150.488V21.66C150.488 20.8947 150.297 20.3113 149.914 19.91C149.541 19.4993 149.032 19.294 148.388 19.294C147.725 19.294 147.198 19.5087 146.806 19.938C146.414 20.358 146.218 20.9693 146.218 21.772V26H144.958V21.66C144.958 20.8947 144.767 20.3113 144.384 19.91C144.011 19.4993 143.502 19.294 142.858 19.294C142.195 19.294 141.668 19.5087 141.276 19.938C140.884 20.358 140.688 20.9693 140.688 21.772V26H139.414V18.328H140.688V19.434C140.94 19.0327 141.276 18.7247 141.696 18.51C142.125 18.2953 142.597 18.188 143.11 18.188C143.754 18.188 144.323 18.3327 144.818 18.622C145.313 18.9113 145.681 19.336 145.924 19.896C146.139 19.3547 146.493 18.9347 146.988 18.636C147.483 18.3373 148.033 18.188 148.64 18.188ZM160.838 21.87C160.838 22.1127 160.824 22.3693 160.796 22.64H154.664C154.71 23.396 154.967 23.9887 155.434 24.418C155.91 24.838 156.484 25.048 157.156 25.048C157.706 25.048 158.164 24.922 158.528 24.67C158.901 24.4087 159.162 24.0633 159.312 23.634H160.684C160.478 24.3713 160.068 24.9733 159.452 25.44C158.836 25.8973 158.07 26.126 157.156 26.126C156.428 26.126 155.774 25.9627 155.196 25.636C154.626 25.3093 154.178 24.8473 153.852 24.25C153.525 23.6433 153.362 22.9433 153.362 22.15C153.362 21.3567 153.52 20.6613 153.838 20.064C154.155 19.4667 154.598 19.0093 155.168 18.692C155.746 18.3653 156.409 18.202 157.156 18.202C157.884 18.202 158.528 18.3607 159.088 18.678C159.648 18.9953 160.077 19.434 160.376 19.994C160.684 20.5447 160.838 21.17 160.838 21.87ZM159.522 21.604C159.522 21.1187 159.414 20.7033 159.2 20.358C158.985 20.0033 158.691 19.7373 158.318 19.56C157.954 19.3733 157.548 19.28 157.1 19.28C156.456 19.28 155.905 19.4853 155.448 19.896C155 20.3067 154.743 20.876 154.678 21.604H159.522ZM166.257 18.188C167.191 18.188 167.947 18.4727 168.525 19.042C169.104 19.602 169.393 20.414 169.393 21.478V26H168.133V21.66C168.133 20.8947 167.942 20.3113 167.559 19.91C167.177 19.4993 166.654 19.294 165.991 19.294C165.319 19.294 164.783 19.504 164.381 19.924C163.989 20.344 163.793 20.9553 163.793 21.758V26H162.519V18.328H163.793V19.42C164.045 19.028 164.386 18.7247 164.815 18.51C165.254 18.2953 165.735 18.188 166.257 18.188ZM173.028 19.378V23.9C173.028 24.2733 173.108 24.5393 173.266 24.698C173.425 24.8473 173.7 24.922 174.092 24.922H175.03V26H173.882C173.173 26 172.641 25.8367 172.286 25.51C171.932 25.1833 171.754 24.6467 171.754 23.9V19.378H170.76V18.328H171.754V16.396H173.028V18.328H175.03V19.378H173.028ZM176.098 22.136C176.098 21.352 176.257 20.666 176.574 20.078C176.891 19.4807 177.325 19.0187 177.876 18.692C178.436 18.3653 179.057 18.202 179.738 18.202C180.41 18.202 180.993 18.3467 181.488 18.636C181.983 18.9253 182.351 19.2893 182.594 19.728V18.328H183.882V26H182.594V24.572C182.342 25.02 181.964 25.3933 181.46 25.692C180.965 25.9813 180.387 26.126 179.724 26.126C179.043 26.126 178.427 25.958 177.876 25.622C177.325 25.286 176.891 24.8147 176.574 24.208C176.257 23.6013 176.098 22.9107 176.098 22.136ZM182.594 22.15C182.594 21.5713 182.477 21.0673 182.244 20.638C182.011 20.2087 181.693 19.882 181.292 19.658C180.9 19.4247 180.466 19.308 179.99 19.308C179.514 19.308 179.08 19.42 178.688 19.644C178.296 19.868 177.983 20.1947 177.75 20.624C177.517 21.0533 177.4 21.5573 177.4 22.136C177.4 22.724 177.517 23.2373 177.75 23.676C177.983 24.1053 178.296 24.4367 178.688 24.67C179.08 24.894 179.514 25.006 179.99 25.006C180.466 25.006 180.9 24.894 181.292 24.67C181.693 24.4367 182.011 24.1053 182.244 23.676C182.477 23.2373 182.594 22.7287 182.594 22.15ZM187.309 19.574C187.533 19.1353 187.85 18.7947 188.261 18.552C188.681 18.3093 189.19 18.188 189.787 18.188V19.504H189.451C188.023 19.504 187.309 20.2787 187.309 21.828V26H186.035V18.328H187.309V19.574ZM200.898 24.264H197.23L196.642 26H194.136L197.692 16.172H200.464L204.02 26H201.486L200.898 24.264ZM200.282 22.416L199.064 18.818L197.86 22.416H200.282ZM209.862 18.104C210.777 18.104 211.505 18.4027 212.046 19C212.597 19.588 212.872 20.4 212.872 21.436V26H210.492V21.758C210.492 21.2353 210.357 20.8293 210.086 20.54C209.816 20.2507 209.452 20.106 208.994 20.106C208.537 20.106 208.173 20.2507 207.902 20.54C207.632 20.8293 207.496 21.2353 207.496 21.758V26H205.102V18.188H207.496V19.224C207.739 18.8787 208.066 18.608 208.476 18.412C208.887 18.2067 209.349 18.104 209.862 18.104ZM215.726 17.376C215.306 17.376 214.961 17.2547 214.69 17.012C214.429 16.76 214.298 16.452 214.298 16.088C214.298 15.7147 214.429 15.4067 214.69 15.164C214.961 14.912 215.306 14.786 215.726 14.786C216.137 14.786 216.473 14.912 216.734 15.164C217.005 15.4067 217.14 15.7147 217.14 16.088C217.14 16.452 217.005 16.76 216.734 17.012C216.473 17.2547 216.137 17.376 215.726 17.376ZM216.93 27.008C216.93 27.9693 216.687 28.66 216.202 29.08C215.717 29.5093 215.04 29.724 214.172 29.724H213.234V27.694H213.808C214.069 27.694 214.256 27.6427 214.368 27.54C214.48 27.4373 214.536 27.2693 214.536 27.036V18.188H216.93V27.008ZM218.175 22.08C218.175 21.2773 218.325 20.5727 218.623 19.966C218.931 19.3593 219.347 18.8927 219.869 18.566C220.392 18.2393 220.975 18.076 221.619 18.076C222.17 18.076 222.651 18.188 223.061 18.412C223.481 18.636 223.803 18.93 224.027 19.294V18.188H226.421V26H224.027V24.894C223.794 25.258 223.467 25.552 223.047 25.776C222.637 26 222.156 26.112 221.605 26.112C220.971 26.112 220.392 25.9487 219.869 25.622C219.347 25.286 218.931 24.8147 218.623 24.208C218.325 23.592 218.175 22.8827 218.175 22.08ZM224.027 22.094C224.027 21.4967 223.859 21.0253 223.523 20.68C223.197 20.3347 222.795 20.162 222.319 20.162C221.843 20.162 221.437 20.3347 221.101 20.68C220.775 21.016 220.611 21.4827 220.611 22.08C220.611 22.6773 220.775 23.1533 221.101 23.508C221.437 23.8533 221.843 24.026 222.319 24.026C222.795 24.026 223.197 23.8533 223.523 23.508C223.859 23.1627 224.027 22.6913 224.027 22.094ZM236.133 18.188L231.233 29.71H228.657L230.449 25.734L227.271 18.188H229.945L231.751 23.074L233.543 18.188H236.133Z" fill="black"/>
</g>
<defs>
<filter id="filter0_d_112_17" x="0" y="0" width="316" height="123.981" filterUnits="userSpaceOnUse" color-interpolation-filters="sRGB">
<feFlood flood-opacity="0" result="BackgroundImageFix"/>
<feColorMatrix in="SourceAlpha" type="matrix" values="0 0 0 0 0 0 0 0 0 0 0 0 0 0 0 0 0 0 127 0" result="hardAlpha"/>
<feOffset dy="4"/>
<feGaussianBlur stdDeviation="2"/>
<feComposite in2="hardAlpha" operator="out"/>
<feColorMatrix type="matrix" values="0 0 0 0 0 0 0 0 0 0 0 0 0 0 0 0 0 0 0.25 0"/>
<feBlend mode="normal" in2="BackgroundImageFix" result="effect1_dropShadow_112_17"/>
<feBlend mode="normal" in="SourceGraphic" in2="effect1_dropShadow_112_17" result="shape"/>
</filter>
</defs>
</svg>
