<svg width="316" height="124" viewBox="0 0 316 124" fill="none" xmlns="http://www.w3.org/2000/svg">
<g filter="url(#filter0_d_112_25)">
<path d="M5.21584 115.942C7.95148 114.356 23.3395 100.404 23.3395 100.404L5.21584 70C5.21584 70 2.4802 117.527 5.21584 115.942Z" fill="white"/>
<rect x="4.71625" width="307.284" height="100.5" rx="20" fill="white"/>
<path d="M87.982 62.768H83.266L82.51 65H79.288L83.86 52.364H87.424L91.996 65H88.738L87.982 62.768ZM87.19 60.392L85.624 55.766L84.076 60.392H87.19ZM97.4735 65.144C96.5975 65.144 95.8175 64.994 95.1335 64.694C94.4495 64.394 93.9095 63.986 93.5135 63.47C93.1175 62.942 92.8955 62.354 92.8475 61.706H95.8895C95.9255 62.054 96.0875 62.336 96.3755 62.552C96.6635 62.768 97.0175 62.876 97.4375 62.876C97.8215 62.876 98.1155 62.804 98.3195 62.66C98.5355 62.504 98.6435 62.306 98.6435 62.066C98.6435 61.778 98.4935 61.568 98.1935 61.436C97.8935 61.292 97.4075 61.136 96.7355 60.968C96.0155 60.8 95.4155 60.626 94.9355 60.446C94.4555 60.254 94.0415 59.96 93.6935 59.564C93.3455 59.156 93.1715 58.61 93.1715 57.926C93.1715 57.35 93.3275 56.828 93.6395 56.36C93.9635 55.88 94.4315 55.502 95.0435 55.226C95.6675 54.95 96.4055 54.812 97.2575 54.812C98.5175 54.812 99.5075 55.124 100.227 55.748C100.959 56.372 101.379 57.2 101.487 58.232H98.6435C98.5955 57.884 98.4395 57.608 98.1755 57.404C97.9235 57.2 97.5875 57.098 97.1675 57.098C96.8075 57.098 96.5315 57.17 96.3395 57.314C96.1475 57.446 96.0515 57.632 96.0515 57.872C96.0515 58.16 96.2015 58.376 96.5015 58.52C96.8135 58.664 97.2935 58.808 97.9415 58.952C98.6855 59.144 99.2915 59.336 99.7595 59.528C100.227 59.708 100.635 60.008 100.983 60.428C101.343 60.836 101.529 61.388 101.541 62.084C101.541 62.672 101.373 63.2 101.037 63.668C100.713 64.124 100.239 64.484 99.6155 64.748C99.0035 65.012 98.2895 65.144 97.4735 65.144ZM104.973 53.912C104.433 53.912 103.989 53.756 103.641 53.444C103.305 53.12 103.137 52.724 103.137 52.256C103.137 51.776 103.305 51.38 103.641 51.068C103.989 50.744 104.433 50.582 104.973 50.582C105.501 50.582 105.933 50.744 106.269 51.068C106.617 51.38 106.791 51.776 106.791 52.256C106.791 52.724 106.617 53.12 106.269 53.444C105.933 53.756 105.501 53.912 104.973 53.912ZM106.503 54.956V65H103.425V54.956H106.503ZM114.871 65L111.811 60.788V65H108.733V51.68H111.811V59.042L114.853 54.956H118.651L114.475 59.996L118.687 65H114.871ZM123.172 62.156L121.174 67.322H119.212L120.256 62.156H123.172ZM128.231 59.96C128.231 58.928 128.423 58.022 128.807 57.242C129.203 56.462 129.737 55.862 130.409 55.442C131.081 55.022 131.831 54.812 132.659 54.812C133.367 54.812 133.985 54.956 134.513 55.244C135.053 55.532 135.467 55.91 135.755 56.378V54.956H138.833V65H135.755V63.578C135.455 64.046 135.035 64.424 134.495 64.712C133.967 65 133.349 65.144 132.641 65.144C131.825 65.144 131.081 64.934 130.409 64.514C129.737 64.082 129.203 63.476 128.807 62.696C128.423 61.904 128.231 60.992 128.231 59.96ZM135.755 59.978C135.755 59.21 135.539 58.604 135.107 58.16C134.687 57.716 134.171 57.494 133.559 57.494C132.947 57.494 132.425 57.716 131.993 58.16C131.573 58.592 131.363 59.192 131.363 59.96C131.363 60.728 131.573 61.34 131.993 61.796C132.425 62.24 132.947 62.462 133.559 62.462C134.171 62.462 134.687 62.24 135.107 61.796C135.539 61.352 135.755 60.746 135.755 59.978ZM145.145 65.144C144.269 65.144 143.489 64.994 142.805 64.694C142.121 64.394 141.581 63.986 141.185 63.47C140.789 62.942 140.567 62.354 140.519 61.706H143.561C143.597 62.054 143.759 62.336 144.047 62.552C144.335 62.768 144.689 62.876 145.109 62.876C145.493 62.876 145.787 62.804 145.991 62.66C146.207 62.504 146.315 62.306 146.315 62.066C146.315 61.778 146.165 61.568 145.865 61.436C145.565 61.292 145.079 61.136 144.407 60.968C143.687 60.8 143.087 60.626 142.607 60.446C142.127 60.254 141.713 59.96 141.365 59.564C141.017 59.156 140.843 58.61 140.843 57.926C140.843 57.35 140.999 56.828 141.311 56.36C141.635 55.88 142.103 55.502 142.715 55.226C143.339 54.95 144.077 54.812 144.929 54.812C146.189 54.812 147.179 55.124 147.899 55.748C148.631 56.372 149.051 57.2 149.159 58.232H146.315C146.267 57.884 146.111 57.608 145.847 57.404C145.595 57.2 145.259 57.098 144.839 57.098C144.479 57.098 144.203 57.17 144.011 57.314C143.819 57.446 143.723 57.632 143.723 57.872C143.723 58.16 143.873 58.376 144.173 58.52C144.485 58.664 144.965 58.808 145.613 58.952C146.357 59.144 146.963 59.336 147.431 59.528C147.899 59.708 148.307 60.008 148.655 60.428C149.015 60.836 149.201 61.388 149.213 62.084C149.213 62.672 149.045 63.2 148.709 63.668C148.385 64.124 147.911 64.484 147.287 64.748C146.675 65.012 145.961 65.144 145.145 65.144ZM152.644 53.912C152.104 53.912 151.66 53.756 151.312 53.444C150.976 53.12 150.808 52.724 150.808 52.256C150.808 51.776 150.976 51.38 151.312 51.068C151.66 50.744 152.104 50.582 152.644 50.582C153.172 50.582 153.604 50.744 153.94 51.068C154.288 51.38 154.462 51.776 154.462 52.256C154.462 52.724 154.288 53.12 153.94 53.444C153.604 53.756 153.172 53.912 152.644 53.912ZM154.174 54.956V65H151.096V54.956H154.174ZM162.543 65L159.483 60.788V65H156.405V51.68H159.483V59.042L162.525 54.956H166.323L162.147 59.996L166.359 65H162.543ZM175.432 65.144C174.556 65.144 173.776 64.994 173.092 64.694C172.408 64.394 171.868 63.986 171.472 63.47C171.076 62.942 170.854 62.354 170.806 61.706H173.848C173.884 62.054 174.046 62.336 174.334 62.552C174.622 62.768 174.976 62.876 175.396 62.876C175.78 62.876 176.074 62.804 176.278 62.66C176.494 62.504 176.602 62.306 176.602 62.066C176.602 61.778 176.452 61.568 176.152 61.436C175.852 61.292 175.366 61.136 174.694 60.968C173.974 60.8 173.374 60.626 172.894 60.446C172.414 60.254 172 59.96 171.652 59.564C171.304 59.156 171.13 58.61 171.13 57.926C171.13 57.35 171.286 56.828 171.598 56.36C171.922 55.88 172.39 55.502 173.002 55.226C173.626 54.95 174.364 54.812 175.216 54.812C176.476 54.812 177.466 55.124 178.186 55.748C178.918 56.372 179.338 57.2 179.446 58.232H176.602C176.554 57.884 176.398 57.608 176.134 57.404C175.882 57.2 175.546 57.098 175.126 57.098C174.766 57.098 174.49 57.17 174.298 57.314C174.106 57.446 174.01 57.632 174.01 57.872C174.01 58.16 174.16 58.376 174.46 58.52C174.772 58.664 175.252 58.808 175.9 58.952C176.644 59.144 177.25 59.336 177.718 59.528C178.186 59.708 178.594 60.008 178.942 60.428C179.302 60.836 179.488 61.388 179.5 62.084C179.5 62.672 179.332 63.2 178.996 63.668C178.672 64.124 178.198 64.484 177.574 64.748C176.962 65.012 176.248 65.144 175.432 65.144ZM190.852 59.816C190.852 60.104 190.834 60.404 190.798 60.716H183.832C183.88 61.34 184.078 61.82 184.426 62.156C184.786 62.48 185.224 62.642 185.74 62.642C186.508 62.642 187.042 62.318 187.342 61.67H190.618C190.45 62.33 190.144 62.924 189.7 63.452C189.268 63.98 188.722 64.394 188.062 64.694C187.402 64.994 186.664 65.144 185.848 65.144C184.864 65.144 183.988 64.934 183.22 64.514C182.452 64.094 181.852 63.494 181.42 62.714C180.988 61.934 180.772 61.022 180.772 59.978C180.772 58.934 180.982 58.022 181.402 57.242C181.834 56.462 182.434 55.862 183.202 55.442C183.97 55.022 184.852 54.812 185.848 54.812C186.82 54.812 187.684 55.016 188.44 55.424C189.196 55.832 189.784 56.414 190.204 57.17C190.636 57.926 190.852 58.808 190.852 59.816ZM187.702 59.006C187.702 58.478 187.522 58.058 187.162 57.746C186.802 57.434 186.352 57.278 185.812 57.278C185.296 57.278 184.858 57.428 184.498 57.728C184.15 58.028 183.934 58.454 183.85 59.006H187.702ZM198.595 54.848C199.771 54.848 200.707 55.232 201.403 56C202.111 56.756 202.465 57.8 202.465 59.132V65H199.405V59.546C199.405 58.874 199.231 58.352 198.883 57.98C198.535 57.608 198.067 57.422 197.479 57.422C196.891 57.422 196.423 57.608 196.075 57.98C195.727 58.352 195.553 58.874 195.553 59.546V65H192.475V54.956H195.553V56.288C195.865 55.844 196.285 55.496 196.813 55.244C197.341 54.98 197.935 54.848 198.595 54.848ZM203.992 59.96C203.992 58.928 204.184 58.022 204.568 57.242C204.964 56.462 205.498 55.862 206.17 55.442C206.842 55.022 207.592 54.812 208.42 54.812C209.08 54.812 209.68 54.95 210.22 55.226C210.772 55.502 211.204 55.874 211.516 56.342V51.68H214.594V65H211.516V63.56C211.228 64.04 210.814 64.424 210.274 64.712C209.746 65 209.128 65.144 208.42 65.144C207.592 65.144 206.842 64.934 206.17 64.514C205.498 64.082 204.964 63.476 204.568 62.696C204.184 61.904 203.992 60.992 203.992 59.96ZM211.516 59.978C211.516 59.21 211.3 58.604 210.868 58.16C210.448 57.716 209.932 57.494 209.32 57.494C208.708 57.494 208.186 57.716 207.754 58.16C207.334 58.592 207.124 59.192 207.124 59.96C207.124 60.728 207.334 61.34 207.754 61.796C208.186 62.24 208.708 62.462 209.32 62.462C209.932 62.462 210.448 62.24 210.868 61.796C211.3 61.352 211.516 60.746 211.516 59.978ZM218.369 53.912C217.829 53.912 217.385 53.756 217.037 53.444C216.701 53.12 216.533 52.724 216.533 52.256C216.533 51.776 216.701 51.38 217.037 51.068C217.385 50.744 217.829 50.582 218.369 50.582C218.897 50.582 219.329 50.744 219.665 51.068C220.013 51.38 220.187 51.776 220.187 52.256C220.187 52.724 220.013 53.12 219.665 53.444C219.329 53.756 218.897 53.912 218.369 53.912ZM219.899 54.956V65H216.821V54.956H219.899ZM225.208 56.63C225.568 56.078 226.018 55.646 226.558 55.334C227.098 55.01 227.698 54.848 228.358 54.848V58.106H227.512C226.744 58.106 226.168 58.274 225.784 58.61C225.4 58.934 225.208 59.51 225.208 60.338V65H222.13V54.956H225.208V56.63ZM231.377 53.912C230.837 53.912 230.393 53.756 230.045 53.444C229.709 53.12 229.541 52.724 229.541 52.256C229.541 51.776 229.709 51.38 230.045 51.068C230.393 50.744 230.837 50.582 231.377 50.582C231.905 50.582 232.337 50.744 232.673 51.068C233.021 51.38 233.195 51.776 233.195 52.256C233.195 52.724 233.021 53.12 232.673 53.444C232.337 53.756 231.905 53.912 231.377 53.912ZM232.907 54.956V65H229.829V54.956H232.907Z" fill="#4E4E4E"/>
<circle cx="43" cy="58" r="26" fill="black"/>
<path d="M84.964 20.974C85.3187 21.03 85.6407 21.1747 85.93 21.408C86.2287 21.6413 86.462 21.9307 86.63 22.276C86.8073 22.6213 86.896 22.99 86.896 23.382C86.896 23.8767 86.77 24.3247 86.518 24.726C86.266 25.118 85.8973 25.4307 85.412 25.664C84.936 25.888 84.3713 26 83.718 26H80.078V16.242H83.578C84.2407 16.242 84.8053 16.354 85.272 16.578C85.7387 16.7927 86.0887 17.0867 86.322 17.46C86.5553 17.8333 86.672 18.2533 86.672 18.72C86.672 19.2987 86.5133 19.7793 86.196 20.162C85.888 20.5353 85.4773 20.806 84.964 20.974ZM81.352 20.456H83.494C84.0913 20.456 84.5533 20.316 84.88 20.036C85.2067 19.756 85.37 19.3687 85.37 18.874C85.37 18.3793 85.2067 17.992 84.88 17.712C84.5533 17.432 84.082 17.292 83.466 17.292H81.352V20.456ZM83.606 24.95C84.2407 24.95 84.7353 24.8007 85.09 24.502C85.4447 24.2033 85.622 23.788 85.622 23.256C85.622 22.7147 85.4353 22.29 85.062 21.982C84.6887 21.6647 84.1893 21.506 83.564 21.506H81.352V24.95H83.606ZM88.1879 22.136C88.1879 21.352 88.3466 20.666 88.6639 20.078C88.9813 19.4807 89.4153 19.0187 89.9659 18.692C90.5259 18.3653 91.1466 18.202 91.8279 18.202C92.4999 18.202 93.0833 18.3467 93.5779 18.636C94.0726 18.9253 94.4413 19.2893 94.6839 19.728V18.328H95.9719V26H94.6839V24.572C94.4319 25.02 94.0539 25.3933 93.5499 25.692C93.0553 25.9813 92.4766 26.126 91.8139 26.126C91.1326 26.126 90.5166 25.958 89.9659 25.622C89.4153 25.286 88.9813 24.8147 88.6639 24.208C88.3466 23.6013 88.1879 22.9107 88.1879 22.136ZM94.6839 22.15C94.6839 21.5713 94.5673 21.0673 94.3339 20.638C94.1006 20.2087 93.7833 19.882 93.3819 19.658C92.9899 19.4247 92.5559 19.308 92.0799 19.308C91.6039 19.308 91.1699 19.42 90.7779 19.644C90.3859 19.868 90.0733 20.1947 89.8399 20.624C89.6066 21.0533 89.4899 21.5573 89.4899 22.136C89.4899 22.724 89.6066 23.2373 89.8399 23.676C90.0733 24.1053 90.3859 24.4367 90.7779 24.67C91.1699 24.894 91.6039 25.006 92.0799 25.006C92.5559 25.006 92.9899 24.894 93.3819 24.67C93.7833 24.4367 94.1006 24.1053 94.3339 23.676C94.5673 23.2373 94.6839 22.7287 94.6839 22.15ZM99.3989 15.64V26H98.1249V15.64H99.3989ZM101.094 22.136C101.094 21.352 101.253 20.666 101.57 20.078C101.888 19.4807 102.322 19.0187 102.872 18.692C103.432 18.3653 104.053 18.202 104.734 18.202C105.406 18.202 105.99 18.3467 106.484 18.636C106.979 18.9253 107.348 19.2893 107.59 19.728V18.328H108.878V26H107.59V24.572C107.338 25.02 106.96 25.3933 106.456 25.692C105.962 25.9813 105.383 26.126 104.72 26.126C104.039 26.126 103.423 25.958 102.872 25.622C102.322 25.286 101.888 24.8147 101.57 24.208C101.253 23.6013 101.094 22.9107 101.094 22.136ZM107.59 22.15C107.59 21.5713 107.474 21.0673 107.24 20.638C107.007 20.2087 106.69 19.882 106.288 19.658C105.896 19.4247 105.462 19.308 104.986 19.308C104.51 19.308 104.076 19.42 103.684 19.644C103.292 19.868 102.98 20.1947 102.746 20.624C102.513 21.0533 102.396 21.5573 102.396 22.136C102.396 22.724 102.513 23.2373 102.746 23.676C102.98 24.1053 103.292 24.4367 103.684 24.67C104.076 24.894 104.51 25.006 104.986 25.006C105.462 25.006 105.896 24.894 106.288 24.67C106.69 24.4367 107.007 24.1053 107.24 23.676C107.474 23.2373 107.59 22.7287 107.59 22.15ZM113.747 26.126C113.159 26.126 112.632 26.028 112.165 25.832C111.698 25.6267 111.33 25.3467 111.059 24.992C110.788 24.628 110.639 24.2127 110.611 23.746H111.927C111.964 24.1287 112.142 24.4413 112.459 24.684C112.786 24.9267 113.21 25.048 113.733 25.048C114.218 25.048 114.601 24.9407 114.881 24.726C115.161 24.5113 115.301 24.2407 115.301 23.914C115.301 23.578 115.152 23.3307 114.853 23.172C114.554 23.004 114.092 22.8407 113.467 22.682C112.898 22.5327 112.431 22.3833 112.067 22.234C111.712 22.0753 111.404 21.8467 111.143 21.548C110.891 21.24 110.765 20.8387 110.765 20.344C110.765 19.952 110.882 19.5927 111.115 19.266C111.348 18.9393 111.68 18.6827 112.109 18.496C112.538 18.3 113.028 18.202 113.579 18.202C114.428 18.202 115.114 18.4167 115.637 18.846C116.16 19.2753 116.44 19.8633 116.477 20.61H115.203C115.175 20.2087 115.012 19.8867 114.713 19.644C114.424 19.4013 114.032 19.28 113.537 19.28C113.08 19.28 112.716 19.378 112.445 19.574C112.174 19.77 112.039 20.0267 112.039 20.344C112.039 20.596 112.118 20.806 112.277 20.974C112.445 21.1327 112.65 21.2633 112.893 21.366C113.145 21.4593 113.49 21.5667 113.929 21.688C114.48 21.8373 114.928 21.9867 115.273 22.136C115.618 22.276 115.912 22.4907 116.155 22.78C116.407 23.0693 116.538 23.4473 116.547 23.914C116.547 24.334 116.43 24.712 116.197 25.048C115.964 25.384 115.632 25.65 115.203 25.846C114.783 26.0327 114.298 26.126 113.747 26.126ZM127.37 26L123.352 21.548V26H122.078V16.242H123.352V20.764L127.384 16.242H128.994L124.57 21.128L129.036 26H127.37ZM133.805 26.126C133.086 26.126 132.433 25.9627 131.845 25.636C131.266 25.3093 130.809 24.8473 130.473 24.25C130.146 23.6433 129.983 22.9433 129.983 22.15C129.983 21.366 130.151 20.6753 130.487 20.078C130.832 19.4713 131.299 19.0093 131.887 18.692C132.475 18.3653 133.133 18.202 133.861 18.202C134.589 18.202 135.247 18.3653 135.835 18.692C136.423 19.0093 136.885 19.4667 137.221 20.064C137.566 20.6613 137.739 21.3567 137.739 22.15C137.739 22.9433 137.562 23.6433 137.207 24.25C136.862 24.8473 136.39 25.3093 135.793 25.636C135.196 25.9627 134.533 26.126 133.805 26.126ZM133.805 25.006C134.262 25.006 134.692 24.8987 135.093 24.684C135.494 24.4693 135.816 24.1473 136.059 23.718C136.311 23.2887 136.437 22.766 136.437 22.15C136.437 21.534 136.316 21.0113 136.073 20.582C135.83 20.1527 135.513 19.8353 135.121 19.63C134.729 19.4153 134.304 19.308 133.847 19.308C133.38 19.308 132.951 19.4153 132.559 19.63C132.176 19.8353 131.868 20.1527 131.635 20.582C131.402 21.0113 131.285 21.534 131.285 22.15C131.285 22.7753 131.397 23.3027 131.621 23.732C131.854 24.1613 132.162 24.4833 132.545 24.698C132.928 24.9033 133.348 25.006 133.805 25.006ZM148.64 18.188C149.237 18.188 149.769 18.314 150.236 18.566C150.703 18.8087 151.071 19.1773 151.342 19.672C151.613 20.1667 151.748 20.7687 151.748 21.478V26H150.488V21.66C150.488 20.8947 150.297 20.3113 149.914 19.91C149.541 19.4993 149.032 19.294 148.388 19.294C147.725 19.294 147.198 19.5087 146.806 19.938C146.414 20.358 146.218 20.9693 146.218 21.772V26H144.958V21.66C144.958 20.8947 144.767 20.3113 144.384 19.91C144.011 19.4993 143.502 19.294 142.858 19.294C142.195 19.294 141.668 19.5087 141.276 19.938C140.884 20.358 140.688 20.9693 140.688 21.772V26H139.414V18.328H140.688V19.434C140.94 19.0327 141.276 18.7247 141.696 18.51C142.125 18.2953 142.597 18.188 143.11 18.188C143.754 18.188 144.323 18.3327 144.818 18.622C145.313 18.9113 145.681 19.336 145.924 19.896C146.139 19.3547 146.493 18.9347 146.988 18.636C147.483 18.3373 148.033 18.188 148.64 18.188ZM160.838 21.87C160.838 22.1127 160.824 22.3693 160.796 22.64H154.664C154.71 23.396 154.967 23.9887 155.434 24.418C155.91 24.838 156.484 25.048 157.156 25.048C157.706 25.048 158.164 24.922 158.528 24.67C158.901 24.4087 159.162 24.0633 159.312 23.634H160.684C160.478 24.3713 160.068 24.9733 159.452 25.44C158.836 25.8973 158.07 26.126 157.156 26.126C156.428 26.126 155.774 25.9627 155.196 25.636C154.626 25.3093 154.178 24.8473 153.852 24.25C153.525 23.6433 153.362 22.9433 153.362 22.15C153.362 21.3567 153.52 20.6613 153.838 20.064C154.155 19.4667 154.598 19.0093 155.168 18.692C155.746 18.3653 156.409 18.202 157.156 18.202C157.884 18.202 158.528 18.3607 159.088 18.678C159.648 18.9953 160.077 19.434 160.376 19.994C160.684 20.5447 160.838 21.17 160.838 21.87ZM159.522 21.604C159.522 21.1187 159.414 20.7033 159.2 20.358C158.985 20.0033 158.691 19.7373 158.318 19.56C157.954 19.3733 157.548 19.28 157.1 19.28C156.456 19.28 155.905 19.4853 155.448 19.896C155 20.3067 154.743 20.876 154.678 21.604H159.522ZM166.257 18.188C167.191 18.188 167.947 18.4727 168.525 19.042C169.104 19.602 169.393 20.414 169.393 21.478V26H168.133V21.66C168.133 20.8947 167.942 20.3113 167.559 19.91C167.177 19.4993 166.654 19.294 165.991 19.294C165.319 19.294 164.783 19.504 164.381 19.924C163.989 20.344 163.793 20.9553 163.793 21.758V26H162.519V18.328H163.793V19.42C164.045 19.028 164.386 18.7247 164.815 18.51C165.254 18.2953 165.735 18.188 166.257 18.188ZM173.028 19.378V23.9C173.028 24.2733 173.108 24.5393 173.266 24.698C173.425 24.8473 173.7 24.922 174.092 24.922H175.03V26H173.882C173.173 26 172.641 25.8367 172.286 25.51C171.932 25.1833 171.754 24.6467 171.754 23.9V19.378H170.76V18.328H171.754V16.396H173.028V18.328H175.03V19.378H173.028ZM176.098 22.136C176.098 21.352 176.257 20.666 176.574 20.078C176.891 19.4807 177.325 19.0187 177.876 18.692C178.436 18.3653 179.057 18.202 179.738 18.202C180.41 18.202 180.993 18.3467 181.488 18.636C181.983 18.9253 182.351 19.2893 182.594 19.728V18.328H183.882V26H182.594V24.572C182.342 25.02 181.964 25.3933 181.46 25.692C180.965 25.9813 180.387 26.126 179.724 26.126C179.043 26.126 178.427 25.958 177.876 25.622C177.325 25.286 176.891 24.8147 176.574 24.208C176.257 23.6013 176.098 22.9107 176.098 22.136ZM182.594 22.15C182.594 21.5713 182.477 21.0673 182.244 20.638C182.011 20.2087 181.693 19.882 181.292 19.658C180.9 19.4247 180.466 19.308 179.99 19.308C179.514 19.308 179.08 19.42 178.688 19.644C178.296 19.868 177.983 20.1947 177.75 20.624C177.517 21.0533 177.4 21.5573 177.4 22.136C177.4 22.724 177.517 23.2373 177.75 23.676C177.983 24.1053 178.296 24.4367 178.688 24.67C179.08 24.894 179.514 25.006 179.99 25.006C180.466 25.006 180.9 24.894 181.292 24.67C181.693 24.4367 182.011 24.1053 182.244 23.676C182.477 23.2373 182.594 22.7287 182.594 22.15ZM187.309 19.574C187.533 19.1353 187.85 18.7947 188.261 18.552C188.681 18.3093 189.19 18.188 189.787 18.188V19.504H189.451C188.023 19.504 187.309 20.2787 187.309 21.828V26H186.035V18.328H187.309V19.574ZM198.336 26.098C197.617 26.098 196.973 25.9813 196.404 25.748C195.835 25.5147 195.377 25.1693 195.032 24.712C194.696 24.2547 194.519 23.704 194.5 23.06H197.048C197.085 23.424 197.211 23.704 197.426 23.9C197.641 24.0867 197.921 24.18 198.266 24.18C198.621 24.18 198.901 24.1007 199.106 23.942C199.311 23.774 199.414 23.5453 199.414 23.256C199.414 23.0133 199.33 22.8127 199.162 22.654C199.003 22.4953 198.803 22.3647 198.56 22.262C198.327 22.1593 197.991 22.0427 197.552 21.912C196.917 21.716 196.399 21.52 195.998 21.324C195.597 21.128 195.251 20.8387 194.962 20.456C194.673 20.0733 194.528 19.574 194.528 18.958C194.528 18.0433 194.859 17.3293 195.522 16.816C196.185 16.2933 197.048 16.032 198.112 16.032C199.195 16.032 200.067 16.2933 200.73 16.816C201.393 17.3293 201.747 18.048 201.794 18.972H199.204C199.185 18.6547 199.069 18.4073 198.854 18.23C198.639 18.0433 198.364 17.95 198.028 17.95C197.739 17.95 197.505 18.0293 197.328 18.188C197.151 18.3373 197.062 18.5567 197.062 18.846C197.062 19.1633 197.211 19.4107 197.51 19.588C197.809 19.7653 198.275 19.9567 198.91 20.162C199.545 20.3767 200.058 20.582 200.45 20.778C200.851 20.974 201.197 21.2587 201.486 21.632C201.775 22.0053 201.92 22.486 201.92 23.074C201.92 23.634 201.775 24.1427 201.486 24.6C201.206 25.0573 200.795 25.4213 200.254 25.692C199.713 25.9627 199.073 26.098 198.336 26.098ZM210.757 21.968C210.757 22.192 210.743 22.4253 210.715 22.668H205.297C205.335 23.1533 205.489 23.5267 205.759 23.788C206.039 24.04 206.38 24.166 206.781 24.166C207.379 24.166 207.794 23.914 208.027 23.41H210.575C210.445 23.9233 210.207 24.3853 209.861 24.796C209.525 25.2067 209.101 25.5287 208.587 25.762C208.074 25.9953 207.5 26.112 206.865 26.112C206.1 26.112 205.419 25.9487 204.821 25.622C204.224 25.2953 203.757 24.8287 203.421 24.222C203.085 23.6153 202.917 22.906 202.917 22.094C202.917 21.282 203.081 20.5727 203.407 19.966C203.743 19.3593 204.21 18.8927 204.807 18.566C205.405 18.2393 206.091 18.076 206.865 18.076C207.621 18.076 208.293 18.2347 208.881 18.552C209.469 18.8693 209.927 19.322 210.253 19.91C210.589 20.498 210.757 21.184 210.757 21.968ZM208.307 21.338C208.307 20.9273 208.167 20.6007 207.887 20.358C207.607 20.1153 207.257 19.994 206.837 19.994C206.436 19.994 206.095 20.1107 205.815 20.344C205.545 20.5773 205.377 20.9087 205.311 21.338H208.307ZM214.414 19.294C214.648 18.93 214.97 18.636 215.38 18.412C215.791 18.188 216.272 18.076 216.822 18.076C217.466 18.076 218.05 18.2393 218.572 18.566C219.095 18.8927 219.506 19.3593 219.804 19.966C220.112 20.5727 220.266 21.2773 220.266 22.08C220.266 22.8827 220.112 23.592 219.804 24.208C219.506 24.8147 219.095 25.286 218.572 25.622C218.05 25.9487 217.466 26.112 216.822 26.112C216.281 26.112 215.8 26 215.38 25.776C214.97 25.552 214.648 25.2627 214.414 24.908V29.724H212.02V18.188H214.414V19.294ZM217.83 22.08C217.83 21.4827 217.662 21.016 217.326 20.68C217 20.3347 216.594 20.162 216.108 20.162C215.632 20.162 215.226 20.3347 214.89 20.68C214.564 21.0253 214.4 21.4967 214.4 22.094C214.4 22.6913 214.564 23.1627 214.89 23.508C215.226 23.8533 215.632 24.026 216.108 24.026C216.584 24.026 216.99 23.8533 217.326 23.508C217.662 23.1533 217.83 22.6773 217.83 22.08ZM229.236 18.188V26H226.842V24.936C226.6 25.2813 226.268 25.5613 225.848 25.776C225.438 25.9813 224.98 26.084 224.476 26.084C223.879 26.084 223.352 25.9533 222.894 25.692C222.437 25.4213 222.082 25.034 221.83 24.53C221.578 24.026 221.452 23.4333 221.452 22.752V18.188H223.832V22.43C223.832 22.9527 223.968 23.3587 224.238 23.648C224.509 23.9373 224.873 24.082 225.33 24.082C225.797 24.082 226.166 23.9373 226.436 23.648C226.707 23.3587 226.842 22.9527 226.842 22.43V18.188H229.236ZM235.758 18.104C236.654 18.104 237.373 18.4027 237.914 19C238.455 19.588 238.726 20.4 238.726 21.436V26H236.346V21.758C236.346 21.2353 236.211 20.8293 235.94 20.54C235.669 20.2507 235.305 20.106 234.848 20.106C234.391 20.106 234.027 20.2507 233.756 20.54C233.485 20.8293 233.35 21.2353 233.35 21.758V26H230.956V15.64H233.35V19.238C233.593 18.8927 233.924 18.6173 234.344 18.412C234.764 18.2067 235.235 18.104 235.758 18.104Z" fill="black"/>
</g>
<defs>
<filter id="filter0_d_112_25" x="0" y="0" width="316" height="123.98" filterUnits="userSpaceOnUse" color-interpolation-filters="sRGB">
<feFlood flood-opacity="0" result="BackgroundImageFix"/>
<feColorMatrix in="SourceAlpha" type="matrix" values="0 0 0 0 0 0 0 0 0 0 0 0 0 0 0 0 0 0 127 0" result="hardAlpha"/>
<feOffset dy="4"/>
<feGaussianBlur stdDeviation="2"/>
<feComposite in2="hardAlpha" operator="out"/>
<feColorMatrix type="matrix" values="0 0 0 0 0 0 0 0 0 0 0 0 0 0 0 0 0 0 0.25 0"/>
<feBlend mode="normal" in2="BackgroundImageFix" result="effect1_dropShadow_112_25"/>
<feBlend mode="normal" in="SourceGraphic" in2="effect1_dropShadow_112_25" result="shape"/>
</filter>
</defs>
</svg>
