<svg width="38" height="27" viewBox="0 0 38 27" fill="none" xmlns="http://www.w3.org/2000/svg">
<path d="M0 27V22.275C0 21.3188 0.252182 20.4401 0.756545 19.6391C1.26091 18.8381 1.92994 18.2261 2.76364 17.8031C4.54848 16.9313 6.36212 16.2776 8.20455 15.8422C10.047 15.4069 11.9182 15.1886 13.8182 15.1875C15.7182 15.1875 17.5894 15.4057 19.4318 15.8422C21.2742 16.2787 23.0879 16.9324 24.8727 17.8031C25.7076 18.225 26.3772 18.837 26.8815 19.6391C27.3859 20.4412 27.6375 21.3199 27.6364 22.275V27H0ZM31.0909 27V21.9375C31.0909 20.7 30.7385 19.5114 30.0338 18.3718C29.3291 17.2322 28.3284 16.2551 27.0318 15.4406C28.5 15.6094 29.8818 15.8979 31.1773 16.3063C32.4727 16.7147 33.6818 17.2136 34.8045 17.8031C35.8409 18.3656 36.6326 18.9911 37.1795 19.6796C37.7265 20.3681 38 21.1208 38 21.9375V27H31.0909ZM13.8182 13.5C11.9182 13.5 10.2917 12.8391 8.93864 11.5172C7.58561 10.1953 6.90909 8.60625 6.90909 6.75C6.90909 4.89375 7.58561 3.30469 8.93864 1.98281C10.2917 0.660938 11.9182 0 13.8182 0C15.7182 0 17.3447 0.660938 18.6977 1.98281C20.0508 3.30469 20.7273 4.89375 20.7273 6.75C20.7273 8.60625 20.0508 10.1953 18.6977 11.5172C17.3447 12.8391 15.7182 13.5 13.8182 13.5ZM31.0909 6.75C31.0909 8.60625 30.4144 10.1953 29.0614 11.5172C27.7083 12.8391 26.0818 13.5 24.1818 13.5C23.8652 13.5 23.4621 13.4651 22.9727 13.3954C22.4833 13.3256 22.0803 13.248 21.7636 13.1625C22.5409 12.2625 23.1385 11.2641 23.5565 10.1672C23.9745 9.07031 24.183 7.93125 24.1818 6.75C24.1818 5.56875 23.9734 4.42969 23.5565 3.33281C23.1397 2.23594 22.5421 1.2375 21.7636 0.3375C22.1667 0.196875 22.5697 0.10575 22.9727 0.0641252C23.3758 0.0225002 23.7788 0.001125 24.1818 0C26.0818 0 27.7083 0.660938 29.0614 1.98281C30.4144 3.30469 31.0909 4.89375 31.0909 6.75Z" fill="white"/>
</svg>
