<svg width="22" height="22" viewBox="0 0 22 22" fill="none" xmlns="http://www.w3.org/2000/svg">
<g clip-path="url(#clip0_112_195)">
<path d="M19.7083 3.66657H17.2639V5.49991C17.2639 5.67646 17.2291 5.85129 17.1615 6.0144C17.094 6.17752 16.9949 6.32573 16.8701 6.45057C16.7453 6.57542 16.5971 6.67445 16.4339 6.74201C16.2708 6.80958 16.096 6.84435 15.9194 6.84435C15.7429 6.84435 15.5681 6.80958 15.4049 6.74201C15.2418 6.67445 15.0936 6.57542 14.9688 6.45057C14.8439 6.32573 14.7449 6.17752 14.6773 6.0144C14.6098 5.85129 14.575 5.67646 14.575 5.49991V3.66657H7.45555V5.49991C7.45555 5.85648 7.31391 6.19844 7.06177 6.45057C6.80964 6.70271 6.46768 6.84435 6.11111 6.84435C5.75454 6.84435 5.41257 6.70271 5.16044 6.45057C4.90831 6.19844 4.76666 5.85648 4.76666 5.49991V3.66657H2.32222C2.17679 3.66492 2.0325 3.69244 1.8979 3.74752C1.76329 3.8026 1.64109 3.88411 1.53854 3.98724C1.43598 4.09037 1.35515 4.21301 1.30082 4.34792C1.24648 4.48283 1.21976 4.62727 1.22222 4.77269V18.4494C1.21979 18.5922 1.24553 18.7341 1.29796 18.867C1.3504 19 1.4285 19.1212 1.52781 19.2239C1.62712 19.3267 1.7457 19.4088 1.87676 19.4657C2.00782 19.5226 2.14881 19.5531 2.29166 19.5555H19.7083C19.8512 19.5531 19.9922 19.5226 20.1232 19.4657C20.2543 19.4088 20.3729 19.3267 20.4722 19.2239C20.5715 19.1212 20.6496 19 20.702 18.867C20.7545 18.7341 20.7802 18.5922 20.7778 18.4494V4.77269C20.7802 4.62983 20.7545 4.4879 20.702 4.35499C20.6496 4.22209 20.5715 4.10081 20.4722 3.9981C20.3729 3.89538 20.2543 3.81323 20.1232 3.75635C19.9922 3.69947 19.8512 3.66896 19.7083 3.66657ZM6.11111 15.8888H4.88888V14.6666H6.11111V15.8888ZM6.11111 12.8332H4.88888V11.611H6.11111V12.8332ZM6.11111 9.77769H4.88888V8.55546H6.11111V9.77769ZM9.77777 15.8888H8.55555V14.6666H9.77777V15.8888ZM9.77777 12.8332H8.55555V11.611H9.77777V12.8332ZM9.77777 9.77769H8.55555V8.55546H9.77777V9.77769ZM13.4444 15.8888H12.2222V14.6666H13.4444V15.8888ZM13.4444 12.8332H12.2222V11.611H13.4444V12.8332ZM13.4444 9.77769H12.2222V8.55546H13.4444V9.77769ZM17.1111 15.8888H15.8889V14.6666H17.1111V15.8888ZM17.1111 12.8332H15.8889V11.611H17.1111V12.8332ZM17.1111 9.77769H15.8889V8.55546H17.1111V9.77769Z" fill="#E62129"/>
<path d="M6.11111 6.11106C6.27319 6.11106 6.42863 6.04667 6.54323 5.93207C6.65784 5.81746 6.72222 5.66202 6.72222 5.49995V1.83328C6.72222 1.6712 6.65784 1.51576 6.54323 1.40116C6.42863 1.28655 6.27319 1.22217 6.11111 1.22217C5.94903 1.22217 5.7936 1.28655 5.67899 1.40116C5.56438 1.51576 5.5 1.6712 5.5 1.83328V5.49995C5.5 5.66202 5.56438 5.81746 5.67899 5.93207C5.7936 6.04667 5.94903 6.11106 6.11111 6.11106Z" fill="#E62129"/>
<path d="M15.8889 6.11106C16.051 6.11106 16.2064 6.04667 16.321 5.93207C16.4356 5.81746 16.5 5.66202 16.5 5.49995V1.83328C16.5 1.6712 16.4356 1.51576 16.321 1.40116C16.2064 1.28655 16.051 1.22217 15.8889 1.22217C15.7268 1.22217 15.5714 1.28655 15.4568 1.40116C15.3422 1.51576 15.2778 1.6712 15.2778 1.83328V5.49995C15.2778 5.66202 15.3422 5.81746 15.4568 5.93207C15.5714 6.04667 15.7268 6.11106 15.8889 6.11106Z" fill="#E62129"/>
</g>
<defs>
<clipPath id="clip0_112_195">
<rect width="22" height="22" fill="white"/>
</clipPath>
</defs>
</svg>
