<svg width="39" height="39" viewBox="0 0 39 39" fill="none" xmlns="http://www.w3.org/2000/svg">
<path d="M10.2213 20.6538L18.3463 28.7788C18.5008 28.9267 18.683 29.0427 18.8825 29.12C19.2781 29.2826 19.7219 29.2826 20.1175 29.12C20.317 29.0427 20.4992 28.9267 20.6538 28.7788L28.7788 20.6538C28.9303 20.5023 29.0505 20.3224 29.1325 20.1245C29.2144 19.9265 29.2567 19.7143 29.2567 19.5C29.2567 19.0673 29.0847 18.6523 28.7788 18.3463C28.4728 18.0403 28.0577 17.8684 27.625 17.8684C27.1923 17.8684 26.7772 18.0403 26.4713 18.3463L21.125 23.7088L21.125 11.375C21.125 10.9441 20.9538 10.5307 20.6491 10.226C20.3443 9.92125 19.931 9.75005 19.5 9.75005C19.069 9.75005 18.6557 9.92125 18.351 10.226C18.0462 10.5307 17.875 10.9441 17.875 11.375L17.875 23.7088L12.5288 18.3463C12.3777 18.194 12.198 18.0731 11.9999 17.9906C11.8019 17.9081 11.5895 17.8656 11.375 17.8656C11.1605 17.8656 10.9481 17.9081 10.7501 17.9906C10.552 18.0731 10.3723 18.194 10.2213 18.3463C10.0689 18.4974 9.94805 18.6771 9.86555 18.8751C9.78306 19.0731 9.74058 19.2855 9.74058 19.5C9.74058 19.7146 9.78306 19.927 9.86555 20.125C9.94805 20.323 10.0689 20.5027 10.2213 20.6538Z" fill="white"/>
</svg>
