<svg width="37" height="37" viewBox="0 0 37 37" fill="none" xmlns="http://www.w3.org/2000/svg">
<path d="M19.1383 1.37478C21.5664 0.822097 23.3158 2.54375 23.7378 3.98328L23.7413 3.99716L23.8916 4.53597C24.5599 3.85263 25.4757 3.46875 26.5753 3.46875C27.0733 3.4686 27.5666 3.56659 28.0268 3.75713C28.487 3.94767 28.9051 4.22702 29.2573 4.57921C29.6095 4.93141 29.8888 5.34955 30.0794 5.80975C30.2699 6.26994 30.3679 6.76317 30.3678 7.26125C30.3678 9.68128 30.355 12.1522 30.3412 14.6196V14.6208C30.3284 17.0905 30.3157 19.5557 30.3157 21.9688C30.3157 29.8868 24.5113 35.6241 18.0363 35.6634H18.0329C12.876 35.6749 8.36316 32.6733 6.78025 27.9362C6.56801 27.2285 6.55184 26.4764 6.73348 25.7602C6.91512 25.0441 7.28775 24.3906 7.81163 23.8696C7.66006 23.7119 7.52053 23.543 7.39422 23.3643C6.70741 22.3966 6.36169 21.0634 6.81263 19.7788C7.74919 17.116 9.92525 14.8578 12.8136 13.5385L9.213 7.64628C8.65569 6.71088 8.5655 5.5951 8.79328 4.62038C9.02222 3.64913 9.60497 2.68135 10.567 2.12403C12.454 1.03369 14.9931 1.50891 16.0938 3.38666L16.4361 3.93935C16.6323 3.31814 16.9831 2.75695 17.4555 2.30838C17.928 1.85982 18.5077 1.53858 19.1383 1.37478ZM10.5693 22.7839C11.2052 22.7839 11.5637 22.5295 11.9857 22.0046C12.146 21.8016 12.2991 21.5929 12.4447 21.3791C12.5303 21.2565 12.6216 21.1247 12.728 20.9778C13.0032 20.5963 13.3443 20.1569 13.786 19.7753C14.8554 18.8639 16.2261 18.3837 17.6305 18.4283H17.6374C19.3626 18.4908 20.7165 19.2203 21.6184 20.3223C22.5018 21.4022 22.9065 22.7793 22.8903 24.109C22.8741 25.4387 22.4359 26.803 21.5259 27.8541C20.5963 28.9282 19.225 29.6116 17.5056 29.6116C16.3725 29.6116 15.2232 29.2046 14.2785 28.5871C13.3362 27.9708 12.491 27.0724 12.0782 25.9821C11.9198 25.5601 11.2919 25.1276 10.5311 25.0964L10.4456 25.0941H10.4409C9.51247 25.0941 8.66841 26.1047 8.9806 27.2262C10.2259 30.9158 13.779 33.3601 18.0236 33.3509C23.088 33.3197 28.0021 28.7559 28.0021 21.9688C28.0021 19.5487 28.0148 17.0778 28.0275 14.6104C28.0414 12.1406 28.0541 9.67435 28.0541 7.26125C28.0541 6.44263 27.3927 5.78125 26.5741 5.78125C25.9463 5.78125 25.6028 6.01482 25.3728 6.37094C25.3592 6.39185 25.3461 6.41305 25.3334 6.43453C25.2185 6.81776 25.162 7.21614 25.1658 7.61622V7.63241L25.027 10.9693C24.9854 11.9603 23.5817 12.1163 23.3227 11.159L22.7238 8.93203C22.7139 8.90423 22.705 8.87607 22.6972 8.84763L21.5155 4.62847C21.3583 4.10353 20.6448 3.41788 19.6736 3.62369C19.2967 3.73298 18.9765 3.98358 18.7798 4.32322C18.7713 4.3727 18.7643 4.42245 18.759 4.47238C18.7047 4.958 18.7763 5.49913 18.8619 5.84022L18.8642 5.85178L20.0205 10.9439C20.2378 11.9048 18.9394 12.4274 18.4306 11.5833L17.2524 9.62463L14.1213 4.59494C14.1146 4.58425 14.108 4.57346 14.1016 4.56257C13.7386 3.93357 12.6771 3.57513 11.7244 4.12666C11.4272 4.29894 11.1601 4.65853 11.0445 5.14994C10.9289 5.63903 10.9983 6.12119 11.1971 6.45882L15.0567 12.7777C15.2012 12.9061 15.3631 13.0217 15.5377 13.1258C15.742 13.2516 15.8895 13.4518 15.9493 13.6842C16.0025 13.8692 16.006 14.0646 15.9805 14.2369C15.9543 14.4247 15.8868 14.6044 15.7828 14.763C15.715 14.8679 15.6257 14.9573 15.5209 15.0252C15.4161 15.0932 15.2981 15.1382 15.1746 15.1573C15.0807 15.1704 14.987 15.1855 14.8937 15.2024L14.8798 15.207C11.9082 16.1956 9.79806 18.256 8.99447 20.5454C8.84069 20.9802 8.93088 21.5363 9.27891 22.0266C9.61306 22.4983 10.079 22.7608 10.508 22.7816L10.5693 22.7839ZM13.3882 23.9055C13.7536 24.2443 14.0519 24.6628 14.2415 25.1646C14.4381 25.6873 14.9006 26.2307 15.5435 26.6516C16.1852 27.0713 16.9032 27.2991 17.5056 27.2991C18.5659 27.2991 19.2955 26.8978 19.7788 26.3394C20.2806 25.7589 20.5674 24.9438 20.5778 24.0812C20.5893 23.2175 20.3234 22.3896 19.8297 21.7872C19.3556 21.2091 18.6272 20.779 17.5577 20.7397C16.7345 20.7133 15.9307 20.9921 15.3007 21.5224L15.296 21.5259C15.0648 21.7259 14.8509 21.9873 14.6046 22.3295C14.541 22.4162 14.4716 22.5168 14.3965 22.622C14.2126 22.8868 13.9987 23.1932 13.7871 23.4557C13.6646 23.6083 13.5328 23.7598 13.3882 23.9055Z" fill="white"/>
</svg>
