<svg width="46" height="46" viewBox="0 0 46 46" fill="none" xmlns="http://www.w3.org/2000/svg">
<path d="M23.0019 17.25C21.4769 17.25 20.0144 17.8558 18.9361 18.9341C17.8577 20.0124 17.2519 21.475 17.2519 23C17.2519 24.525 17.8577 25.9875 18.9361 27.0658C20.0144 28.1442 21.4769 28.75 23.0019 28.75C24.5269 28.75 25.9895 28.1442 27.0678 27.0658C28.1461 25.9875 28.7519 24.525 28.7519 23C28.7519 21.475 28.1461 20.0124 27.0678 18.9341C25.9895 17.8558 24.5269 17.25 23.0019 17.25ZM23.0019 13.4166C25.5436 13.4166 27.9811 14.4263 29.7784 16.2235C31.5756 18.0208 32.5853 20.4583 32.5853 23C32.5853 25.5416 31.5756 27.9792 29.7784 29.7764C27.9811 31.5736 25.5436 32.5833 23.0019 32.5833C20.4603 32.5833 18.0227 31.5736 16.2255 29.7764C14.4283 27.9792 13.4186 25.5416 13.4186 23C13.4186 20.4583 14.4283 18.0208 16.2255 16.2235C18.0227 14.4263 20.4603 13.4166 23.0019 13.4166ZM35.4603 12.9375C35.4603 13.5729 35.2078 14.1823 34.7585 14.6316C34.3092 15.0809 33.6998 15.3333 33.0644 15.3333C32.429 15.3333 31.8196 15.0809 31.3703 14.6316C30.921 14.1823 30.6686 13.5729 30.6686 12.9375C30.6686 12.3021 30.921 11.6927 31.3703 11.2434C31.8196 10.7941 32.429 10.5416 33.0644 10.5416C33.6998 10.5416 34.3092 10.7941 34.7585 11.2434C35.2078 11.6927 35.4603 12.3021 35.4603 12.9375ZM23.0019 7.66665C18.2601 7.66665 17.4858 7.68006 15.2797 7.77781C13.777 7.84873 12.7688 8.04998 11.8335 8.41415C11.0508 8.70153 10.3431 9.16215 9.76351 9.76156C9.16361 10.3412 8.70235 11.0488 8.41418 11.8316C8.05001 12.7707 7.84876 13.777 7.77976 15.2777C7.68009 17.3937 7.66668 18.1336 7.66668 23C7.66668 27.7437 7.68009 28.5161 7.77784 30.7222C7.84876 32.223 8.05001 33.2331 8.41226 34.1665C8.73809 35.0002 9.12143 35.6001 9.75776 36.2365C10.4037 36.8805 11.0036 37.2657 11.8278 37.5839C12.7746 37.95 13.7828 38.1531 15.2778 38.2221C17.3938 38.3218 18.1336 38.3333 23 38.3333C27.7438 38.3333 28.5162 38.3199 30.7223 38.2221C32.2211 38.1512 33.2293 37.95 34.1665 37.5877C34.9485 37.2989 35.6559 36.8385 36.2365 36.2403C36.8824 35.5963 37.2677 34.9964 37.5858 34.1703C37.95 33.2273 38.1532 32.2191 38.2222 30.7203C38.3218 28.6062 38.3333 27.8645 38.3333 23C38.3333 18.2581 38.3199 17.4838 38.2222 15.2777C38.1513 13.7789 37.9481 12.7669 37.5858 11.8316C37.2969 11.0496 36.8365 10.3423 36.2384 9.76156C35.6591 9.16135 34.9514 8.70005 34.1684 8.41223C33.2293 8.04806 32.2211 7.84681 30.7223 7.77781C28.6082 7.67815 27.8683 7.66665 23 7.66665M23 3.83331C28.2076 3.83331 28.8573 3.85248 30.9024 3.94831C32.9418 4.04415 34.3333 4.36423 35.5542 4.83956C36.8192 5.3264 37.8848 5.98573 38.9505 7.04948C39.9251 8.00761 40.6792 9.16661 41.1604 10.4458C41.6338 11.6667 41.9558 13.0582 42.0517 15.0995C42.1418 17.1426 42.1667 17.7924 42.1667 23C42.1667 28.2076 42.1475 28.8573 42.0517 30.9005C41.9558 32.9417 41.6338 34.3313 41.1604 35.5541C40.6806 36.834 39.9263 37.9933 38.9505 38.9505C37.9921 39.9248 36.8332 40.6788 35.5542 41.1604C34.3333 41.6338 32.9418 41.9558 30.9024 42.0516C28.8573 42.1417 28.2076 42.1666 23 42.1666C17.7924 42.1666 17.1427 42.1475 15.0976 42.0516C13.0583 41.9558 11.6687 41.6338 10.4458 41.1604C9.16613 40.6802 8.00694 39.926 7.04951 38.9505C6.07475 37.9925 5.3206 36.8334 4.83959 35.5541C4.36426 34.3332 4.04418 32.9417 3.94834 30.9005C3.85634 28.8573 3.83334 28.2076 3.83334 23C3.83334 17.7924 3.85251 17.1426 3.94834 15.0995C4.04418 13.0582 4.36426 11.6686 4.83959 10.4458C5.31921 9.16582 6.07355 8.00651 7.04951 7.04948C8.00721 6.07434 9.16633 5.32013 10.4458 4.83956C11.6668 4.36423 13.0563 4.04415 15.0976 3.94831C17.1446 3.85823 17.7943 3.83331 23.0019 3.83331" fill="white"/>
</svg>
