<svg width="39" height="39" viewBox="0 0 39 39" fill="none" xmlns="http://www.w3.org/2000/svg">
<path d="M16.1562 23.5C15.8659 23.4999 15.582 23.4137 15.3406 23.2523C15.0992 23.0909 14.9111 22.8615 14.7999 22.5932C14.6888 22.3249 14.6597 22.0297 14.7164 21.7449C14.773 21.4601 14.9128 21.1984 15.118 20.993L29.6164 6.49463C28.8661 6.08723 28.0257 5.87421 27.1719 5.875H5.14062C3.77769 5.87646 2.471 6.41853 1.50726 7.38227C0.543526 8.346 0.00145794 9.6527 0 11.0156V33.0469C0.00145794 34.4098 0.543526 35.7165 1.50726 36.6802C2.471 37.644 3.77769 38.186 5.14062 38.1875H27.1719C28.5348 38.186 29.8415 37.644 30.8052 36.6802C31.769 35.7165 32.311 34.4098 32.3125 33.0469V11.0156C32.3133 10.1618 32.1003 9.32141 31.6929 8.57108L17.1945 23.0695C17.0584 23.2062 16.8966 23.3146 16.7184 23.3885C16.5402 23.4624 16.3492 23.5003 16.1562 23.5Z" fill="white"/>
<path d="M36.7188 0H26.4375C26.048 0 25.6744 0.154743 25.3989 0.430187C25.1235 0.705631 24.9688 1.07921 24.9688 1.46875C24.9688 1.85829 25.1235 2.23187 25.3989 2.50731C25.6744 2.78276 26.048 2.9375 26.4375 2.9375H33.1726L29.6164 6.49463C30.4946 6.97166 31.2158 7.69287 31.6929 8.57107L35.25 5.01486V11.75C35.25 12.1395 35.4047 12.5131 35.6802 12.7886C35.9556 13.064 36.3292 13.2188 36.7188 13.2188C37.1083 13.2188 37.4819 13.064 37.7573 12.7886C38.0328 12.5131 38.1875 12.1395 38.1875 11.75V1.46875C38.1875 1.07921 38.0328 0.705631 37.7573 0.430187C37.4819 0.154743 37.1083 0 36.7188 0Z" fill="white"/>
</svg>
