<svg width="24" height="25" viewBox="0 0 24 25" fill="none" xmlns="http://www.w3.org/2000/svg">
<path d="M20 20.5L15.95 16.45M15.95 16.45C16.6 15.7999 17.1157 15.0282 17.4675 14.1789C17.8193 13.3296 18.0003 12.4193 18.0003 11.5C18.0003 10.5807 17.8193 9.67039 17.4675 8.82107C17.1157 7.97175 16.6 7.20003 15.95 6.54999C15.2999 5.89995 14.5282 5.3843 13.6789 5.0325C12.8296 4.6807 11.9193 4.49963 11 4.49963C10.0807 4.49963 9.17039 4.6807 8.32107 5.0325C7.47175 5.3843 6.70003 5.89995 6.04999 6.54999C4.73717 7.86281 3.99963 9.64338 3.99963 11.5C3.99963 13.3566 4.73717 15.1372 6.04999 16.45C7.36281 17.7628 9.14338 18.5003 11 18.5003C12.8566 18.5003 14.6372 17.7628 15.95 16.45Z" stroke="white" stroke-width="2" stroke-linecap="round" stroke-linejoin="round"/>
</svg>
