<svg width="20" height="37" viewBox="0 0 20 37" fill="none" xmlns="http://www.w3.org/2000/svg">
<path d="M10 0C4.453 0 0 4.51 0 10.25C0 10.6478 0.158035 11.0294 0.43934 11.3107C0.720644 11.592 1.10218 11.75 1.5 11.75C1.89782 11.75 2.27935 11.592 2.56066 11.3107C2.84196 11.0294 3 10.6478 3 10.25C3 6.11 6.167 3 10 3C13.833 3 17 6.11 17 10.25C17 12.086 16.554 13.1 15.978 13.857C15.502 14.483 14.955 14.94 14.246 15.533C13.947 15.783 13.62 16.055 13.258 16.375C12.103 17.394 10.873 18.686 9.957 20.751C9.051 22.794 8.5 25.484 8.5 29.25V29.5C8.5 29.8978 8.65804 30.2794 8.93934 30.5607C9.22065 30.842 9.60218 31 10 31C10.3978 31 10.7794 30.842 11.0607 30.5607C11.342 30.2794 11.5 29.8978 11.5 29.5V29.25C11.5 25.766 12.011 23.519 12.7 21.968C13.377 20.438 14.272 19.481 15.242 18.625C15.457 18.435 15.695 18.236 15.946 18.028C16.744 17.361 17.668 16.591 18.366 15.674C19.382 14.337 20 12.664 20 10.25C20 4.51 15.547 0 10 0ZM10 37C10.4641 37 10.9092 36.8156 11.2374 36.4874C11.5656 36.1592 11.75 35.7141 11.75 35.25C11.75 34.7859 11.5656 34.3408 11.2374 34.0126C10.9092 33.6844 10.4641 33.5 10 33.5C9.53587 33.5 9.09075 33.6844 8.76256 34.0126C8.43438 34.3408 8.25 34.7859 8.25 35.25C8.25 35.7141 8.43438 36.1592 8.76256 36.4874C9.09075 36.8156 9.53587 37 10 37Z" fill="white"/>
</svg>
