<svg width="1440" height="320" viewBox="0 0 1440 320" fill="none" xmlns="http://www.w3.org/2000/svg">
<path d="M-48 283.067L5.56667 264.6C59.1333 246.133 166.267 209.2 273.4 178.383C380.533 148.028 487.667 122.637 594.8 141.45C701.933 159.57 809.067 221.895 916.2 240.016C1023.33 258.829 1130.47 233.437 1237.6 240.016C1344.73 246.133 1451.87 283.067 1505.43 301.533L1559 320H1505.43C1451.87 320 1344.73 320 1237.6 320C1130.47 320 1023.33 320 916.2 320C809.067 320 701.933 320 594.8 320C487.667 320 380.533 320 273.4 320C166.267 320 59.1333 320 5.56667 320H-48V283.067Z" fill="#E62129" fill-opacity="0.5"/>
<path d="M-8 288L40 272C88 256 184 224 280 197.3C376 171 472 149 568 165.3C664 181 760 235 856 250.7C952 267 1048 245 1144 250.7C1240 256 1336 288 1384 304L1432 320H1384C1336 320 1240 320 1144 320C1048 320 952 320 856 320C760 320 664 320 568 320C472 320 376 320 280 320C184 320 88 320 40 320H-8V288Z" fill="#E62129" fill-opacity="0.9"/>
</svg>
