<svg width="42" height="47" viewBox="0 0 42 47" fill="none" xmlns="http://www.w3.org/2000/svg">
<path d="M6 2.91669C2.69063 2.91669 0 5.53257 0 8.75002V37.9167C0 41.1341 2.69063 43.75 6 43.75H36C39.3094 43.75 42 41.1341 42 37.9167V8.75002C42 5.53257 39.3094 2.91669 36 2.91669H6ZM33.8531 10.5729L24.1219 21.3828L35.5687 36.0938H26.6062L19.5938 27.1706L11.5594 36.0938H7.10625L17.5125 24.5274L6.53437 10.5729H15.7219L22.0687 18.7305L29.4 10.5729H33.8531ZM30.3094 33.5052L14.3812 13.0248H11.7281L27.8344 33.5052H30.3H30.3094Z" fill="white"/>
</svg>
