<svg width="46" height="46" viewBox="0 0 46 46" fill="none" xmlns="http://www.w3.org/2000/svg">
<path d="M19.1667 28.75L29.1142 23L19.1667 17.25V28.75ZM41.3233 13.7425C41.5725 14.6433 41.745 15.8508 41.86 17.3841C41.9942 18.9175 42.0517 20.24 42.0517 21.39L42.1667 23C42.1667 27.1975 41.86 30.2833 41.3233 32.2575C40.8442 33.9825 39.7325 35.0941 38.0075 35.5733C37.1067 35.8225 35.4583 35.995 32.9283 36.11C30.4367 36.2441 28.1558 36.3017 26.0475 36.3017L23 36.4166C14.9692 36.4166 9.96668 36.11 7.99251 35.5733C6.26751 35.0941 5.15584 33.9825 4.67668 32.2575C4.42751 31.3566 4.25501 30.1491 4.14001 28.6158C4.00584 27.0825 3.94834 25.76 3.94834 24.61L3.83334 23C3.83334 18.8025 4.14001 15.7166 4.67668 13.7425C5.15584 12.0175 6.26751 10.9058 7.99251 10.4266C8.89334 10.1775 10.5417 10.005 13.0717 9.88998C15.5633 9.75581 17.8442 9.69831 19.9525 9.69831L23 9.58331C31.0308 9.58331 36.0333 9.88998 38.0075 10.4266C39.7325 10.9058 40.8442 12.0175 41.3233 13.7425Z" fill="white"/>
</svg>
